<?xml version="1.0" standalone="no"?>
<!DOCTYPE svg PUBLIC "-//W3C//DTD SVG 20010904//EN"
 "http://www.w3.org/TR/2001/REC-SVG-20010904/DTD/svg10.dtd">
<svg version="1.0" xmlns="http://www.w3.org/2000/svg"
 width="560.000000pt" height="747.000000pt" viewBox="0 0 560.000000 747.000000"
 preserveAspectRatio="xMidYMid meet">

<g transform="translate(0.000000,747.000000) scale(0.100000,-0.100000)"
fill="#000000" stroke="none">
<path d="M0 6646 l0 -824 27 -54 27 -53 7 -370 c4 -203 10 -428 13 -500 33
-710 40 -1014 25 -1080 -7 -30 -16 -55 -21 -55 -4 0 -8 -19 -8 -42 -1 -79 -28
-199 -49 -222 -20 -22 -21 -32 -20 -322 1 -282 8 -324 23 -149 8 91 15 125 27
125 5 0 9 -6 9 -14 0 -8 4 -16 9 -18 11 -4 -1 -117 -49 -470 -19 -141 -20
-203 -20 -1373 l0 -1225 1180 0 c649 0 1180 2 1180 5 0 7 -100 133 -138 174
l-33 36 6 -31 6 -31 -48 8 c-125 22 -123 22 -123 5 0 -9 7 -16 15 -16 8 0 15
-5 15 -10 0 -11 -36 -5 -86 15 -34 14 -87 65 -137 132 -17 24 -76 98 -129 164
-54 66 -102 128 -108 138 -9 18 -3 111 7 111 3 0 18 -11 35 -25 16 -14 38 -25
49 -25 95 0 359 178 359 243 0 57 54 124 157 193 54 37 110 96 155 162 19 29
38 44 65 51 43 12 173 15 172 4 0 -5 -22 -24 -48 -44 -53 -40 -81 -89 -81
-141 0 -18 -7 -46 -15 -62 -8 -15 -15 -36 -15 -45 0 -9 -5 -22 -12 -29 -19
-19 20 -27 41 -8 10 9 22 16 27 16 12 0 44 57 44 79 0 9 4 21 9 26 15 17 91
167 91 181 0 8 11 14 26 14 35 0 52 -45 64 -172 26 -271 48 -396 74 -417 6 -5
22 -11 36 -13 21 -2 29 -16 55 -84 16 -44 40 -96 52 -114 l22 -34 -25 -23
c-29 -27 -25 -39 13 -45 16 -3 35 -7 43 -9 8 -2 14 2 12 9 -4 21 6 14 73 -48
53 -49 70 -60 97 -59 18 1 45 -1 60 -5 24 -6 29 -2 46 37 18 41 66 87 90 87
22 0 23 -21 1 -38 -18 -15 -20 -22 -10 -40 18 -33 14 -42 -26 -59 -29 -11 -55
-14 -107 -9 -59 5 -67 4 -62 -9 5 -13 -4 -54 -30 -142 -4 -15 0 -27 15 -39 12
-10 21 -29 21 -41 l0 -23 424 0 c375 0 425 2 437 16 12 14 14 14 25 -1 15 -20
24 -21 35 -3 7 10 9 10 9 1 0 -7 5 -13 11 -13 5 0 9 8 7 18 -1 9 1 22 5 28 4
7 0 17 -8 24 -8 7 -15 16 -15 21 0 11 -45 83 -77 122 -12 15 -30 43 -39 62 -9
19 -21 35 -26 35 -5 0 -6 -6 -2 -12 4 -7 -1 -6 -10 3 -9 8 -19 31 -22 51 -6
32 -2 41 35 81 52 56 54 78 6 70 -30 -5 -36 -2 -46 21 -7 14 -16 26 -20 26 -7
0 -69 -95 -69 -105 0 -3 -21 -37 -47 -76 -27 -39 -52 -79 -58 -90 -5 -10 -13
-19 -18 -19 -4 0 -6 4 -3 8 3 5 -1 9 -8 9 -9 0 -12 -7 -8 -16 3 -9 2 -13 -3
-9 -4 4 -14 3 -21 -3 -9 -8 -12 2 -12 42 -1 29 -6 55 -11 59 -7 4 -8 17 -2 36
4 16 7 58 7 94 -2 61 0 67 30 97 43 43 50 85 35 208 -9 79 -16 103 -31 114
-16 11 -20 25 -20 75 1 56 18 105 33 90 3 -3 3 3 0 15 -3 12 -1 21 4 21 5 0 9
10 9 23 -1 18 4 22 31 22 17 0 29 3 26 7 -2 5 3 8 11 8 9 0 16 -4 16 -9 0 -5
18 -5 42 1 50 11 88 8 106 -9 7 -7 24 -13 37 -13 16 0 26 -8 33 -27 6 -16 11
-22 11 -14 1 12 3 12 14 -1 14 -19 121 -52 110 -34 -11 17 -12 37 -2 30 5 -3
9 2 9 10 0 19 10 25 65 35 52 10 67 0 28 -18 -34 -15 -68 -59 -68 -88 -1 -29
0 -29 44 7 53 45 54 45 80 47 22 2 23 0 19 -53 -3 -29 -8 -57 -11 -60 -4 -4
-31 0 -62 9 -34 9 -57 12 -61 6 -10 -17 7 -112 28 -157 17 -36 24 -42 50 -42
33 0 35 -21 1 -30 -19 -5 -19 -5 3 -75 12 -38 22 -63 23 -55 1 12 16 15 71 15
l70 0 -7 -70 c-4 -38 -8 -88 -8 -110 0 -22 -2 -42 -5 -45 -11 -11 -60 -122
-60 -136 0 -8 -12 -22 -27 -31 -33 -19 -69 -83 -47 -83 21 0 17 -64 -6 -110
-11 -22 -20 -42 -20 -45 0 -3 130 -5 289 -5 l289 0 7 48 c5 26 10 54 11 62 14
65 28 293 28 480 1 199 -1 228 -17 250 -17 24 -17 24 -18 -50 0 -41 -4 -95 -8
-120 l-7 -45 -7 55 c-4 30 -7 75 -7 100 0 68 -11 120 -25 120 -7 0 -24 9 -39
21 -24 19 -26 26 -26 104 0 51 -4 87 -11 91 -15 9 -4 72 17 95 9 11 13 19 8
19 -14 0 19 20 34 20 9 0 12 -24 13 -87 0 -80 15 -199 18 -146 0 12 5 24 10
27 10 7 21 -27 21 -69 1 -28 1 -28 12 -10 7 11 14 27 17 35 7 24 0 398 -10
480 -18 154 -58 1098 -55 1300 0 41 -3 110 -8 153 -8 73 -8 77 11 77 17 0 21
-7 21 -47 1 -25 6 -89 12 -142 9 -86 15 -180 35 -569 3 -59 10 -183 15 -277 5
-93 12 -237 15 -320 11 -272 25 -545 32 -575 5 -30 23 -52 23 -30 0 6 5 8 10
5 6 -3 10 -20 10 -37 0 -17 3 -28 6 -25 8 7 -15 520 -56 1297 -16 300 -31 601
-33 670 -2 69 -7 134 -11 145 -6 16 -6 17 3 5 9 -12 11 -7 6 23 -5 40 -3 42
26 27 17 -10 19 -22 19 -115 0 -57 7 -137 15 -177 9 -40 25 -167 35 -283 19
-199 25 -300 50 -800 6 -115 15 -265 20 -333 6 -67 7 -168 4 -225 -5 -75 -2
-127 11 -197 21 -117 31 -297 34 -588 1 -151 -1 -222 -8 -222 -6 0 -11 12 -11
28 0 15 -6 50 -14 77 l-13 50 -7 -130 c-3 -72 -8 -156 -9 -187 l-3 -58 82 0
82 0 7 96 c7 83 3 219 -10 389 -7 97 -18 391 -16 437 1 25 -3 49 -9 53 -13 8
-13 62 0 70 13 8 13 75 0 95 -8 12 -10 12 -11 -5 -3 -51 -18 66 -29 220 -6 94
-17 222 -24 285 -7 68 -9 131 -4 155 14 66 21 74 29 30 5 -25 6 -7 3 49 -2 49
-6 91 -9 94 -3 3 -5 -4 -5 -16 0 -12 -8 -35 -18 -51 l-18 -30 -13 127 c-7 70
-19 192 -26 272 -19 200 -63 568 -80 665 -20 117 -22 211 -4 207 8 -2 34 -5
58 -7 24 -1 47 -8 51 -14 4 -7 11 -11 16 -10 5 1 16 1 24 0 13 -1 13 -2 0 -11
-8 -5 -10 -10 -5 -10 6 0 11 -44 11 -108 1 -60 -1 -90 -5 -67 l-6 39 -13 -29
c-10 -22 -12 -72 -8 -215 12 -377 28 -650 36 -620 8 30 13 0 30 -185 18 -201
20 -214 36 -208 12 4 15 -6 14 -58 0 -35 3 -93 8 -129 9 -59 10 -52 10 73 0
76 2 141 5 143 2 2 7 -48 10 -112 9 -164 64 -917 77 -1049 6 -61 11 -213 10
-338 0 -191 2 -227 14 -227 8 0 17 12 19 28 l4 27 2 -27 1 -28 115 0 115 0 0
2021 0 2021 -52 -6 c-29 -3 -122 -8 -206 -12 -177 -8 -156 12 -172 -164 -14
-159 -12 -301 5 -465 21 -198 21 -200 -15 -215 -36 -15 -127 -7 -212 18 -56
16 -57 17 -56 52 1 19 -4 80 -10 135 -23 182 -26 417 -9 560 16 128 27 226 32
275 5 43 37 324 40 350 1 14 8 72 14 130 6 58 16 139 21 180 6 41 15 113 21
160 6 47 12 96 15 110 8 48 5 335 -4 395 -9 51 -7 67 9 104 25 58 24 69 -4 43
-13 -12 -27 -19 -30 -15 -4 3 -6 -4 -6 -18 1 -13 -8 -44 -19 -69 -23 -50 -38
-154 -47 -335 -14 -261 -105 -1084 -130 -1180 -13 -48 -14 -43 -16 115 l-2
165 -12 -243 c-7 -134 -15 -246 -19 -249 -3 -3 -5 77 -5 178 0 117 -5 220 -15
284 -8 55 -16 121 -17 148 -2 26 -7 47 -12 47 -5 0 -6 -21 -3 -47 12 -102 9
-193 -5 -124 -5 25 -12 47 -17 50 -5 3 -12 87 -15 186 -4 99 -12 259 -19 356
-11 170 -7 241 12 194 5 -11 9 -37 9 -57 1 -21 5 -38 11 -38 6 0 8 29 4 78 -7
101 -12 114 -28 83 -13 -23 -13 -23 -19 15 -4 22 -7 80 -7 129 -1 50 -5 137
-10 195 -8 97 -7 120 4 109 2 -2 10 -73 17 -156 7 -84 14 -151 16 -149 11 10
1 341 -12 394 -3 13 -1 22 6 22 8 0 8 4 1 13 -15 17 -26 273 -13 281 15 10 22
-9 23 -71 0 -36 7 -70 18 -89 13 -23 15 -35 7 -43 -7 -7 -7 -14 1 -24 7 -8 9
-17 5 -20 -11 -12 20 -281 34 -295 11 -11 13 -10 13 8 0 12 4 19 9 16 5 -3 11
8 13 25 3 16 1 32 -2 34 -4 3 -10 14 -13 25 -3 11 -1 18 4 14 5 -3 9 18 9 45
0 28 5 51 10 51 19 0 10 29 -10 35 -11 4 -28 17 -36 30 -15 23 -14 26 5 54 24
33 26 42 10 38 -6 -1 -14 4 -16 11 -3 6 0 12 6 12 15 0 14 27 -1 32 -6 2 -13
30 -16 63 -4 47 -2 61 13 71 9 7 23 10 30 8 8 -3 21 6 30 20 19 29 35 34 35
10 0 -31 18 -3 30 46 11 44 30 78 30 52 0 -5 8 -19 19 -31 l18 -21 6 28 c3 16
1 58 -4 93 -24 157 -28 194 -18 198 6 1 18 12 28 22 16 17 80 43 88 36 6 -6
25 -268 30 -408 3 -98 1 -153 -6 -167 -6 -12 -13 -63 -16 -114 -3 -63 -2 -82
4 -60 5 18 7 41 4 51 -3 10 3 49 13 87 15 59 16 99 11 281 l-7 213 48 -7 c26
-3 49 -7 51 -9 9 -8 16 -270 8 -282 -6 -7 -12 -45 -14 -85 -2 -40 -5 -94 -7
-122 -1 -27 2 -56 7 -62 16 -21 -1 -60 -28 -67 -14 -4 -25 -11 -25 -17 0 -6 7
-8 16 -5 9 3 31 6 50 6 l34 0 0 52 c0 58 8 62 12 5 1 -27 6 -36 16 -32 7 3 18
5 24 5 7 0 9 30 5 93 -4 50 -11 157 -16 237 -38 581 -41 614 -67 700 -28 93
-63 183 -64 162 0 -27 -20 0 -20 28 0 16 -7 30 -16 34 -8 3 -14 14 -13 23 3
24 -16 69 -27 65 -5 -2 -10 2 -13 9 -2 7 1 9 8 5 7 -5 9 -1 4 10 -5 15 -7 15
-15 0 -5 -9 -14 -16 -21 -16 -8 0 -9 3 -1 8 15 10 25 42 14 42 -6 0 -10 -6
-11 -12 0 -7 -7 2 -15 20 -10 23 -20 32 -30 28 -9 -3 -12 -2 -9 4 3 6 -3 23
-14 39 -11 15 -18 31 -14 35 3 3 1 6 -6 6 -7 0 -19 -6 -27 -14 -12 -13 -11
-22 8 -73 12 -32 27 -65 35 -74 7 -8 13 -19 13 -22 0 -4 11 -29 24 -56 16 -34
20 -53 13 -60 -7 -7 -3 -13 14 -20 13 -5 18 -10 12 -10 -7 -1 -13 -13 -13 -28
-1 -24 -2 -25 -11 -11 -6 11 -16 15 -27 11 -15 -6 -15 -5 -3 10 10 12 10 17 2
17 -8 0 -10 8 -6 19 10 33 -10 31 -24 -1 -13 -29 -15 -30 -28 -13 -7 11 -13
32 -13 48 0 21 -4 28 -14 24 -9 -4 -16 3 -21 20 -6 25 -69 93 -86 93 -5 0 -9
6 -9 13 0 8 -11 24 -25 37 -14 13 -25 29 -25 37 0 14 -16 18 -23 5 -3 -4 8
-34 24 -67 34 -72 35 -94 8 -154 -71 -156 -87 -197 -94 -247 -11 -74 -79 -111
-127 -69 -16 13 -28 28 -28 33 0 12 -29 24 -41 17 -5 -4 -6 1 -3 9 3 9 -2 17
-15 21 -12 3 -21 11 -21 16 0 13 -43 49 -119 100 -52 35 -59 43 -51 59 6 10
10 25 9 32 0 7 -6 1 -13 -14 l-12 -28 -38 26 -38 26 20 21 c25 28 35 96 12 82
-6 -4 -35 -1 -66 6 -51 12 -54 13 -33 24 13 7 75 13 155 14 73 1 147 6 164 11
23 7 30 6 27 -3 -2 -7 -17 -13 -33 -15 -80 -7 -114 -14 -108 -23 3 -6 8 -8 11
-6 8 8 53 -40 53 -56 0 -9 11 -19 26 -23 32 -8 108 2 112 15 2 5 10 7 18 4 10
-4 17 2 21 16 3 11 9 19 13 16 4 -3 10 8 12 24 3 23 -1 32 -24 46 -16 9 -28
12 -28 6 0 -6 -9 -11 -20 -11 -11 0 -20 3 -20 8 0 11 59 35 73 29 9 -3 11 6 9
34 -3 27 -8 36 -18 32 -9 -3 -14 2 -14 16 0 16 -6 21 -25 21 -17 0 -25 -6 -25
-16 0 -41 -83 -58 -140 -29 -21 11 -30 11 -32 3 -6 -16 -37 -2 -44 19 -3 10
-9 26 -14 35 -5 9 -8 30 -5 47 3 27 0 30 -28 37 -18 3 -36 9 -41 11 -15 9 18
23 56 23 20 0 40 5 43 10 4 7 -108 10 -328 10 -274 0 -336 -2 -340 -14 -9 -23
-54 -25 -77 -4 -12 11 -24 17 -27 14 -4 -3 -2 -6 2 -6 5 0 0 -6 -10 -14 -24
-17 -41 -10 -24 10 9 11 8 14 -7 14 -11 0 -23 -4 -29 -8 -18 -13 -37 -54 -28
-62 4 -4 49 -4 98 0 50 5 144 8 210 8 66 -1 101 -3 79 -5 -24 -2 -49 -12 -59
-23 -14 -15 -22 -17 -43 -9 -21 8 -29 7 -38 -5 -13 -19 -25 -21 -21 -4 5 24
-263 12 -271 -12 -2 -6 -15 -10 -29 -10 -18 0 -24 4 -19 15 4 11 -3 15 -27 16
-30 1 -31 1 -7 9 14 4 44 8 68 9 36 1 42 4 42 23 0 20 -1 21 -13 4 -11 -14
-19 -16 -47 -9 -19 5 -36 15 -36 21 -1 7 -2 19 -3 27 -1 13 -178 15 -1530 15
-1346 0 -1530 -2 -1541 -15 -7 -8 -16 -15 -21 -15 -5 0 -6 7 -3 15 5 12 -5 15
-55 15 l-61 0 0 -824z m4065 784 c-3 -5 -21 -9 -38 -9 l-32 1 30 8 c43 11 47
11 40 0z m-3962 -17 c-7 -3 -13 -11 -13 -19 0 -8 -4 -14 -10 -14 -15 0 -12 11
7 32 9 10 19 15 22 12 3 -4 0 -9 -6 -11z m2881 -42 c3 -5 -4 -11 -17 -15 -37
-10 -87 -7 -87 5 0 8 14 10 40 6 22 -3 40 -1 40 4 0 12 17 12 24 0z m56 -1 c0
-5 -4 -10 -10 -10 -5 0 -10 5 -10 10 0 6 5 10 10 10 6 0 10 -4 10 -10z m100 0
c0 -5 -9 -10 -19 -10 -11 0 -23 5 -26 10 -4 6 5 10 19 10 14 0 26 -4 26 -10z
m537 -12 c-3 -8 -6 -5 -6 6 -1 11 2 17 5 13 3 -3 4 -12 1 -19z m-812 2 c-3 -5
-10 -10 -16 -10 -5 0 -9 5 -9 10 0 6 7 10 16 10 8 0 12 -4 9 -10z m1605 -110
c0 -5 -2 -10 -4 -10 -3 0 -8 5 -11 10 -3 6 -1 10 4 10 6 0 11 -4 11 -10z
m-2804 -60 c38 -1 125 -6 194 -11 69 -5 235 -11 370 -14 135 -2 310 -7 390
-10 607 -22 771 -28 815 -26 77 2 273 -26 340 -49 33 -11 87 -28 120 -36 60
-16 241 -102 273 -130 9 -8 42 -34 72 -57 64 -48 68 -52 98 -91 17 -22 19 -32
11 -42 -16 -19 -19 -18 -64 22 -84 75 -203 145 -400 235 -106 48 -298 84 -394
72 -32 -4 -56 -2 -65 6 -7 6 -20 9 -28 6 -8 -3 -82 1 -164 9 -316 33 -1392 74
-1644 63 -126 -6 -225 -23 -253 -45 -7 -5 -57 -26 -112 -47 -238 -91 -405
-212 -549 -400 -44 -59 -62 -75 -64 -62 -6 28 5 59 32 99 22 33 23 38 10 64
-8 15 -12 29 -9 32 3 3 5 0 5 -6 0 -17 26 -15 44 3 8 8 18 15 23 15 4 0 17 14
28 30 11 16 25 30 31 30 6 0 17 11 24 25 7 13 17 22 22 19 4 -3 8 4 8 15 0 18
11 26 24 19 3 -2 15 7 28 18 21 20 63 44 167 98 20 10 44 25 53 33 28 25 174
71 241 77 34 3 87 11 117 16 30 6 67 12 83 14 15 2 30 6 33 9 4 4 10 5 14 2 4
-2 38 -5 76 -5z m1224 -20 c11 -7 5 -8 -20 -4 -43 8 -51 14 -19 14 13 0 31 -5
39 -10z m443 -17 c-7 -2 -19 -2 -25 0 -7 3 -2 5 12 5 14 0 19 -2 13 -5z
m-1670 -80 c-7 -2 -21 -2 -30 0 -10 3 -4 5 12 5 17 0 24 -2 18 -5z m1332 -32
c346 -18 417 -23 408 -31 -4 -4 -84 -4 -178 1 -93 4 -251 11 -350 14 -197 7
-245 11 -245 25 0 9 64 8 365 -9z m712 -57 c-3 -3 -12 -4 -19 -1 -8 3 -5 6 6
6 11 1 17 -2 13 -5z m242 -73 c3 -5 26 -14 51 -21 25 -7 47 -15 50 -19 8 -10
64 -45 73 -46 4 0 11 -5 15 -10 16 -23 65 -54 76 -48 6 3 8 3 5 -1 -4 -4 18
-32 49 -62 30 -29 53 -57 49 -60 -3 -3 -40 24 -82 60 -88 77 -148 117 -262
175 -46 23 -83 44 -83 46 0 9 53 -4 59 -14z m321 -21 c0 -5 -2 -10 -4 -10 -3
0 -8 5 -11 10 -3 6 -1 10 4 10 6 0 11 -4 11 -10z m665 -10 c3 -5 -1 -10 -9
-10 -9 0 -16 5 -16 10 0 6 4 10 9 10 6 0 13 -4 16 -10z m-2041 -32 c-1 -13 -5
-41 -9 -62 -7 -34 -6 -38 9 -33 9 4 15 3 12 -1 -2 -4 -30 -9 -62 -10 -43 -2
-66 -9 -88 -26 -28 -21 -33 -22 -45 -8 -13 13 -16 13 -26 -2 -13 -16 -35 -22
-35 -8 0 4 7 18 16 30 14 20 14 22 -1 22 -9 0 -13 5 -10 10 3 6 15 10 26 10
16 0 19 5 14 19 -4 13 0 23 12 30 10 6 12 11 6 11 -12 0 -18 31 -9 41 2 2 46
3 98 2 91 -1 93 -2 92 -25z m125 13 c11 -7 10 -10 -4 -18 -12 -7 -14 -13 -6
-17 21 -13 11 -26 -19 -26 -32 0 -37 8 -17 29 10 11 9 13 -3 9 -9 -3 -17 -21
-20 -44 l-6 -39 -5 37 c-3 25 -1 39 8 42 7 3 13 12 13 21 0 16 36 20 59 6z
m141 -67 c0 -21 -4 -33 -10 -29 -5 3 -10 19 -10 36 0 16 5 29 10 29 6 0 10
-16 10 -36z m-2480 -14 c0 -5 -2 -10 -4 -10 -3 0 -8 5 -11 10 -3 6 -1 10 4 10
6 0 11 -4 11 -10z m3414 -7 c34 -6 189 -141 182 -160 -3 -7 1 -13 9 -13 19 0
75 -61 68 -74 -4 -5 -14 0 -23 11 -14 18 -18 19 -26 6 -9 -14 -13 -14 -43 2
-18 9 -42 14 -53 12 -28 -8 -71 10 -62 25 6 9 9 9 12 0 6 -18 22 -4 22 19 0
20 -15 26 -25 9 -10 -16 -28 -12 -21 5 5 14 -9 20 -41 16 -8 -1 -13 9 -13 23
0 20 4 24 18 20 10 -4 13 -2 7 3 -19 15 -38 67 -26 71 6 2 11 8 11 13 0 4 -6
6 -14 3 -7 -3 -16 2 -20 11 -4 11 -2 14 7 8 6 -4 20 -9 31 -10z m-1086 -20
c-10 -2 -26 -2 -35 0 -10 3 -2 5 17 5 19 0 27 -2 18 -5z m1455 -43 c10 -16 16
-30 13 -30 -8 0 -46 43 -46 52 0 17 17 7 33 -22z m-1493 10 c11 -7 6 -10 -20
-10 -26 0 -31 3 -20 10 8 5 17 10 20 10 3 0 12 -5 20 -10z m1440 -36 c0 22 30
-20 36 -50 3 -19 10 -34 15 -34 5 0 9 -11 9 -25 0 -35 -14 -31 -38 9 -15 25
-17 36 -9 40 7 2 4 5 -5 5 -11 1 -18 9 -18 21 0 11 -3 19 -7 19 -19 -3 -23 2
-11 15 9 10 15 11 20 2 4 -6 8 -7 8 -2z m-15 -124 c15 -22 25 -43 22 -46 -3
-3 -11 5 -17 18 -7 12 -22 33 -33 46 -11 12 -16 22 -10 22 6 0 23 -18 38 -40z
m-62 -57 c-7 -2 -19 -2 -25 0 -7 3 -2 5 12 5 14 0 19 -2 13 -5z m461 1 c10 -4
16 -18 16 -39 0 -18 5 -35 11 -37 7 -2 7 -17 -1 -48 -11 -43 -15 -67 -18 -117
-1 -12 -15 -31 -31 -42 -27 -19 -31 -20 -45 -5 -9 8 -16 29 -16 46 0 16 -16
61 -35 99 -36 72 -44 117 -22 123 84 24 118 29 141 20z m-410 -19 c3 -8 12
-15 21 -15 37 0 145 -289 160 -425 6 -57 4 -64 -37 -145 -24 -47 -57 -105 -73
-129 -17 -25 -50 -81 -75 -126 -148 -270 -160 -287 -211 -300 -26 -6 -27 -5
-32 42 -5 50 -24 127 -26 106 -1 -7 -7 -13 -15 -13 -11 0 -13 -34 -10 -183 l4
-183 -29 -22 -28 -21 -5 52 c-3 29 -3 81 -1 117 6 85 3 186 -5 229 -7 33 -10
35 -52 37 -52 3 -80 -16 -80 -53 0 -32 27 -40 63 -20 50 29 50 28 21 -208 -8
-66 -19 -133 -24 -150 -13 -48 -20 -165 -10 -165 6 0 10 7 10 15 0 8 7 15 15
15 8 0 15 4 15 9 0 5 7 12 16 15 8 3 13 2 10 -2 -2 -4 4 -8 14 -8 10 0 16 4
14 8 -3 4 0 16 5 25 6 10 11 12 11 6 0 -7 11 -13 25 -13 17 0 26 -6 27 -17 2
-33 4 -38 11 -50 4 -6 3 -14 -2 -18 -6 -3 -2 -14 8 -24 17 -17 42 -123 41
-176 -1 -11 -3 -89 -6 -172 l-6 -153 -31 -15 c-20 -10 -33 -12 -35 -5 -6 18
-40 11 -47 -9 -3 -11 -12 -18 -19 -15 -11 4 -12 -4 -6 -35 13 -70 48 -93 99
-67 40 21 41 21 36 -16 -2 -18 -5 -172 -5 -341 -1 -169 -4 -315 -7 -322 -6
-18 -40 -20 -45 -4 -3 8 -10 5 -21 -6 -17 -16 -17 -19 -1 -36 9 -10 19 -18 23
-17 3 0 9 -1 14 -2 4 -1 13 -3 20 -4 14 -1 19 -76 4 -76 -5 0 -7 13 -5 29 3
22 0 31 -14 34 -16 5 -17 0 -12 -46 3 -29 6 -57 7 -64 0 -6 7 -9 15 -5 11 4
13 2 7 -9 -8 -12 -6 -12 8 0 18 14 24 2 7 -15 -6 -6 -5 -15 1 -24 9 -12 10
-11 4 5 -6 19 -6 19 13 -1 14 -14 21 -41 26 -90 3 -38 7 -78 9 -89 2 -11 -1
-26 -6 -32 -5 -7 -6 -13 -1 -13 13 0 7 -144 -5 -148 -6 -2 -9 -9 -5 -15 3 -7
-2 -3 -10 7 -35 43 -56 126 -61 234 -5 146 -7 151 -15 47 -4 -49 -5 -94 -2
-100 3 -5 7 -16 8 -25 0 -8 7 -50 13 -92 13 -84 10 -98 -20 -98 -10 0 -19 -4
-19 -9 0 -5 -9 -13 -20 -16 -25 -8 -26 -34 -2 -41 9 -3 24 -9 32 -13 8 -5 25
-5 37 0 18 6 21 5 18 -11 -2 -11 0 -22 5 -25 5 -3 7 -26 3 -50 -4 -35 -2 -45
8 -45 10 -1 9 -4 -3 -14 -10 -7 -15 -15 -12 -18 3 -3 7 -18 10 -33 3 -19 1
-25 -8 -20 -7 4 -5 0 6 -9 11 -9 16 -22 12 -31 -3 -9 -3 -21 0 -26 9 -14 11
-127 3 -140 -4 -6 -13 -8 -20 -5 -8 4 -6 1 4 -7 19 -16 14 -46 -10 -60 -7 -4
-13 -17 -13 -27 0 -11 -5 -20 -11 -20 -6 0 -10 -12 -9 -27 1 -16 1 -32 0 -38
-2 -5 -4 -14 -5 -20 -1 -5 -9 -36 -19 -68 -10 -31 -19 -71 -21 -87 -2 -17 -7
-35 -10 -40 -3 -5 -8 -29 -11 -52 -2 -24 -6 -56 -9 -73 -2 -16 -5 -79 -6 -140
-1 -60 -8 -157 -15 -215 -7 -58 -13 -108 -14 -112 0 -5 -16 -8 -35 -8 -27 0
-33 -3 -28 -16 4 -12 -1 -11 -28 5 -19 12 -52 26 -74 32 -48 13 -125 50 -125
60 0 4 -23 6 -50 5 -28 -1 -53 0 -55 4 -2 3 15 44 38 90 23 47 47 96 52 110
15 36 0 116 -30 162 -24 37 -26 46 -27 174 0 130 -2 138 -30 191 -16 30 -36
90 -44 132 -8 42 -18 88 -23 103 -7 19 -6 30 4 38 10 8 11 19 3 43 -5 18 -21
73 -35 122 -13 50 -31 97 -38 105 -18 21 -27 79 -17 114 l8 29 18 -29 c11 -16
27 -37 38 -47 24 -24 74 -39 75 -23 3 53 5 133 3 141 -10 41 -1 48 59 42 69
-5 81 -11 81 -38 0 -27 20 -24 21 4 1 17 2 18 6 4 2 -9 9 -15 14 -12 5 4 9 -1
9 -9 0 -9 -5 -15 -11 -13 -6 1 -19 -19 -28 -44 -24 -69 -61 -98 -61 -48 0 22
-21 69 -30 69 -4 0 -12 -23 -17 -50 l-10 -50 31 -9 c34 -9 60 0 70 24 4 11 13
14 31 9 18 -4 25 -3 23 6 -2 7 3 15 10 17 7 3 12 -4 12 -19 0 -13 6 -33 14
-44 12 -15 19 -17 33 -8 45 27 50 123 11 212 -11 26 -20 57 -20 70 0 12 -4 25
-9 28 -5 3 -3 13 3 24 12 19 4 72 -23 137 -12 29 -11 38 10 85 33 73 38 124
15 149 -16 18 -16 24 -5 52 27 63 25 95 -5 140 -55 82 -67 117 -70 217 -2 52
-8 96 -14 98 -5 2 -11 16 -11 30 -1 27 -1 27 -8 -3 -4 -16 -5 -57 -3 -89 6
-76 -8 -69 -52 28 -18 39 -44 85 -58 101 -14 17 -37 52 -53 78 -15 27 -51 66
-79 87 -28 21 -68 56 -89 78 -36 36 -39 44 -44 114 -8 104 -36 145 -121 174
-34 12 -68 26 -75 32 -6 5 -34 10 -62 10 -54 -1 -85 10 -125 42 -14 11 -43 22
-65 24 -22 2 -53 9 -68 15 -16 6 -39 11 -53 11 -13 0 -24 5 -24 10 0 6 0 13 0
18 -1 17 -79 85 -128 112 -79 43 -225 85 -422 121 -227 41 -350 44 -433 10
-38 -16 -56 -28 -53 -37 3 -7 1 -16 -4 -19 -6 -4 -10 -1 -10 5 0 11 -75 -23
-85 -40 -13 -20 8 -52 43 -69 36 -16 40 -21 48 -71 4 -20 2 -22 -7 -10 -8 11
-9 5 -3 -25 3 -22 6 -47 5 -55 -4 -49 2 -89 22 -123 22 -39 22 -39 2 -53 -11
-7 -24 -17 -28 -23 -31 -34 -46 -47 -62 -56 -16 -10 -16 -13 -4 -33 12 -19 12
-24 1 -31 -8 -4 -13 -11 -12 -15 3 -12 -22 -66 -31 -66 -13 0 -59 -53 -53 -61
2 -4 -1 -11 -7 -15 -8 -5 -9 -3 -4 6 5 8 4 11 -3 7 -12 -8 -42 -92 -42 -118 0
-14 -53 -49 -75 -49 -4 0 -24 -10 -43 -22 -37 -23 -103 -26 -111 -6 -6 18 -40
-24 -62 -80 -12 -31 -27 -63 -33 -71 -8 -11 -8 -13 2 -7 6 4 12 2 12 -3 0 -6
-6 -11 -14 -11 -8 0 -18 -5 -22 -12 -5 -7 -3 -8 6 -3 9 6 11 4 6 -4 -5 -7 -14
-10 -22 -7 -8 3 -13 0 -11 -6 1 -6 -4 -13 -12 -16 -8 -3 -11 0 -7 7 8 13 6 13
-51 16 -24 1 -43 -1 -43 -4 0 -4 -12 -7 -26 -6 -24 0 -28 -7 -49 -70 -12 -38
-25 -81 -28 -95 -4 -15 -19 -42 -34 -63 -21 -27 -33 -35 -48 -30 l-20 5 20
-16 c15 -12 16 -15 5 -16 -12 0 -13 -2 -1 -9 9 -6 10 -11 2 -15 -7 -5 -5 -19
9 -45 10 -21 17 -41 14 -44 -3 -3 -8 -56 -10 -119 -4 -81 -1 -129 10 -168 10
-37 11 -59 4 -67 -10 -13 9 -50 27 -51 16 -1 17 -19 0 -35 -24 -24 -19 -80 9
-106 47 -45 182 -43 199 3 8 20 37 21 37 1 0 -8 5 -15 11 -15 7 0 9 11 6 29
-4 21 1 37 18 61 17 23 22 40 18 61 -3 17 1 36 11 50 17 26 22 104 6 114 -11
7 -7 46 10 92 18 50 54 68 133 66 66 -2 69 -1 105 35 20 21 57 50 82 64 25 14
54 35 64 47 11 12 23 21 28 21 11 0 48 -38 48 -49 0 -5 5 -11 11 -13 6 -2 5
-14 -5 -33 -13 -24 -16 -26 -16 -10 0 11 -4 16 -8 10 -4 -5 -20 -17 -37 -25
-16 -9 -31 -24 -33 -34 -5 -24 24 -54 62 -62 35 -7 46 -19 46 -51 0 -13 5 -23
10 -23 21 0 9 -27 -30 -68 -23 -23 -48 -42 -56 -42 -9 0 -14 -7 -13 -17 6 -38
-11 -71 -46 -87 -41 -20 -77 -55 -69 -68 9 -15 -39 -77 -68 -88 -16 -5 -40
-15 -55 -20 -31 -11 -54 -50 -47 -78 3 -10 -10 -33 -30 -57 -20 -22 -46 -60
-58 -85 -13 -25 -27 -48 -33 -52 -5 -4 -6 -10 -2 -14 4 -4 -1 -12 -10 -19 -16
-12 -15 -21 6 -55 15 -26 53 -200 48 -221 -4 -16 -1 -19 13 -14 16 5 20 -1 26
-42 6 -38 9 -43 13 -24 6 24 7 23 62 -153 15 -48 12 -53 -43 -59 -68 -8 -128
-64 -85 -79 30 -11 138 0 156 16 9 9 22 16 27 16 14 0 36 -39 41 -74 3 -17 13
-51 24 -75 25 -57 24 -59 -8 -20 -65 77 -83 91 -106 85 -35 -11 -167 -26 -230
-27 -59 -1 -81 -12 -105 -55 -9 -16 -11 -16 -37 4 -15 12 -32 22 -37 22 -11 0
-68 42 -68 50 0 4 12 12 27 19 23 11 29 10 42 -7 9 -11 26 -25 38 -31 20 -10
25 -8 42 20 17 28 20 29 30 12 8 -14 9 -11 4 17 -10 57 -31 89 -73 110 -39 20
-123 27 -147 12 -17 -11 -61 -77 -65 -99 -6 -34 -49 -22 -70 19 -26 50 -36
286 -13 295 17 6 21 33 5 33 -23 0 3 207 28 226 18 13 6 38 -14 30 -11 -4 -14
9 -14 70 0 49 -5 82 -15 97 -12 19 -12 36 3 137 17 107 19 115 39 112 20 -3
22 3 28 82 6 67 11 86 24 88 12 3 8 8 -14 20 l-31 16 8 89 c5 48 13 126 18
173 11 89 21 281 13 243 -2 -12 -11 -24 -19 -27 -12 -5 -14 1 -10 27 3 17 12
127 21 242 8 116 20 273 25 350 6 77 24 244 41 370 17 127 32 262 35 300 3 39
11 104 19 145 8 41 19 131 25 200 24 268 53 461 73 488 6 8 6 12 -1 12 -28 0
31 147 70 172 49 33 111 105 143 168 41 81 68 108 90 90 8 -7 15 -18 15 -25 0
-6 76 26 170 72 93 46 176 83 183 83 7 0 18 5 23 10 14 14 83 20 90 9 3 -5 10
-7 15 -4 5 4 9 1 9 -5 0 -6 4 -9 9 -6 5 4 11 1 13 -4 2 -6 13 -12 26 -13 12 0
22 -5 22 -9 0 -4 65 -7 143 -6 79 1 149 -2 155 -6 7 -4 12 -3 12 1 0 5 11 10
25 11 57 5 65 7 65 17 0 5 5 3 10 -5 5 -8 10 -10 10 -3 0 12 17 12 37 0 7 -4
30 -14 52 -22 31 -11 41 -11 41 -2 0 7 4 6 10 -3 5 -8 10 -10 10 -5 0 12 109
13 128 2 7 -5 12 -3 12 5 0 8 3 9 8 3 15 -22 72 -3 72 24 0 10 3 12 8 5 4 -6
15 -10 24 -8 10 1 21 -2 24 -7 3 -6 14 -7 25 -4 10 4 19 2 19 -3 0 -5 6 -9 13
-10 6 -1 30 -4 52 -8 43 -6 69 -7 158 -1 32 2 60 0 63 -5 3 -4 31 -8 62 -8 31
0 72 -2 90 -4 17 -2 32 -1 32 3 0 3 15 5 32 5 40 -2 105 32 111 57 3 13 11 17
21 13 9 -3 16 -1 16 6 0 6 5 8 10 5 6 -3 10 0 10 7 0 9 3 9 10 -2 6 -9 10 -11
10 -3 0 7 6 10 14 7 8 -3 34 0 57 6 24 7 46 12 49 12 3 0 13 4 23 10 14 7 17
16 12 37 -4 20 0 32 14 45 11 10 18 24 14 30 -3 6 -3 8 2 4 12 -11 45 10 46
30 0 10 3 12 6 4 2 -6 8 -10 13 -7 10 6 58 -13 80 -31 12 -10 35 -10 115 1 55
7 147 16 205 19 58 4 136 13 175 21 38 8 83 15 99 15 24 0 27 2 16 15 -7 9 -8
15 -2 15 5 0 12 -7 16 -15z m66 -6 c17 -30 6 -34 -14 -4 -9 14 -12 25 -7 25 6
0 15 -9 21 -21z m130 -114 c0 -7 -7 -15 -15 -19 -8 -3 -15 -4 -15 -2 0 3 -2
11 -5 18 -4 9 2 14 15 15 11 1 20 -4 20 -12z m-4081 -212 c-3 -81 -1 -105 11
-98 6 3 10 -2 11 -12 0 -13 3 -12 10 7 l11 25 39 -45 c21 -25 39 -39 39 -32 0
6 9 12 20 12 11 0 20 -6 20 -14 0 -8 8 -13 17 -12 12 0 19 -7 21 -21 2 -13 10
-23 18 -23 8 0 14 -4 14 -10 0 -5 7 -10 15 -10 8 0 18 -12 21 -26 5 -19 1 -30
-15 -45 -27 -25 -41 -16 -70 47 -12 24 -28 44 -36 44 -9 0 -12 6 -9 15 4 8 1
15 -5 15 -14 0 -14 -16 0 -42 8 -15 8 -19 0 -14 -7 5 -11 -5 -11 -28 0 -48
-20 -47 -55 4 -40 57 -65 50 -65 -18 0 -34 -14 -57 -29 -48 -6 4 -11 5 -11 2
0 -2 -3 -11 -6 -20 -4 -11 0 -16 11 -16 20 0 20 15 -10 -215 -20 -151 -22
-160 -41 -144 -11 9 -14 9 -14 0 0 -7 -5 -9 -10 -6 -6 4 -8 35 -6 78 11 165
11 172 -4 172 -8 1 -18 -4 -22 -9 -19 -28 -19 19 1 176 28 227 48 316 71 328
13 7 20 6 24 -6 5 -13 9 -14 21 -4 8 7 15 21 15 31 0 11 3 19 6 19 3 0 5 -26
3 -57z m-446 -264 c-6 -6 -7 3 -4 23 4 28 6 29 9 9 2 -13 0 -27 -5 -32z m5124
19 c-3 -7 -5 -2 -5 12 0 14 2 19 5 13 2 -7 2 -19 0 -25z m-592 -39 c-4 -5 -1
-9 4 -9 6 0 11 -7 11 -15 0 -8 -6 -15 -13 -15 -18 0 -37 21 -37 40 0 13 1 13
10 0 8 -13 10 -12 10 3 0 10 5 15 10 12 6 -4 8 -11 5 -16z m-3943 -77 c-7 -2
-12 -12 -12 -22 0 -13 6 -17 18 -13 10 2 24 -3 31 -11 11 -13 10 -19 -5 -33
-17 -17 -17 -18 6 -21 17 -3 20 -6 10 -12 -11 -7 -11 -11 -1 -24 8 -9 9 -16 4
-16 -14 0 -9 -34 8 -61 12 -18 15 -49 14 -119 -1 -97 -13 -133 -55 -167 -12
-10 -12 -14 -2 -21 15 -10 6 -66 -9 -56 -5 3 -9 -2 -9 -10 0 -9 -6 -16 -14
-16 -7 0 -19 -7 -27 -16 -10 -13 -10 -17 2 -25 8 -5 9 -9 4 -9 -15 0 -35 -59
-39 -115 -2 -26 -10 -51 -17 -56 -7 -4 -14 -7 -15 -6 -6 8 10 126 17 121 4 -2
8 8 8 23 0 15 3 44 6 63 5 27 4 32 -5 20 -8 -12 -10 -10 -6 10 11 57 18 108
22 155 11 136 26 251 34 265 6 10 9 11 10 3 0 -18 40 -16 40 1 0 16 -27 29
-42 20 -7 -4 -7 20 -3 72 8 88 11 97 28 87 8 -5 8 -8 -1 -11z m3958 3 c0 -8
-4 -15 -10 -15 -5 0 -10 7 -10 15 0 8 5 15 10 15 6 0 10 -7 10 -15z m0 -71 c0
-25 -4 -43 -9 -40 -5 3 -11 -1 -15 -9 -3 -9 -18 -15 -37 -15 -31 0 -31 0 -15
25 9 14 21 37 26 51 9 22 8 25 -5 20 -9 -3 -13 -2 -10 4 3 6 19 10 36 10 28 0
29 -2 29 -46z m-4013 -106 c-3 -8 -6 -5 -6 6 -1 11 2 17 5 13 3 -3 4 -12 1
-19z m-238 -124 c4 -47 -19 -297 -27 -289 -3 3 -7 15 -9 27 -2 12 -8 25 -13
28 -9 5 -8 29 5 149 12 109 17 132 28 128 7 -2 14 -21 16 -43z m3929 -374 c-3
-43 -12 -89 -22 -107 -18 -36 -41 -45 -33 -13 3 11 1 20 -5 20 -5 0 -6 5 -3
10 3 6 1 10 -5 10 -6 0 -9 4 -5 9 3 5 1 12 -5 16 -5 3 -10 0 -11 -7 -1 -16
-17 30 -18 54 -1 12 4 15 16 11 11 -5 14 -3 8 6 -4 8 -2 17 6 22 7 4 10 11 6
16 -5 4 -12 1 -17 -7 -7 -11 -12 -12 -21 -3 -14 14 15 31 48 28 12 -1 21 3 20
8 -1 5 4 12 12 15 9 3 11 0 6 -8 -5 -9 -4 -11 3 -6 7 4 13 15 13 24 1 13 2 13
6 -3 3 -11 3 -53 1 -95z m-3964 -87 c-1 -32 -5 -114 -9 -183 -5 -115 -21 -253
-45 -390 -6 -30 -12 -80 -14 -110 -5 -65 -33 -160 -46 -160 -6 0 -10 -7 -10
-15 0 -8 -5 -15 -10 -15 -12 0 -7 103 9 165 5 22 12 67 15 100 3 33 13 105 22
160 15 94 22 149 43 320 10 83 33 185 42 185 4 0 5 -26 3 -57z m4283 -35 c-3
-8 -6 -5 -6 6 -1 11 2 17 5 13 3 -3 4 -12 1 -19z m320 -70 c-3 -7 -5 -2 -5 12
0 14 2 19 5 13 2 -7 2 -19 0 -25z m-4325 -31 c8 -16 7 -23 -8 -34 -24 -18 -34
-16 -35 5 0 11 -5 7 -15 -13 l-15 -30 6 30 c4 16 12 33 18 37 8 5 6 8 -5 8
-23 0 -23 16 -1 29 20 11 37 0 55 -32z m1883 -37 c4 -6 11 -8 16 -5 9 6 13
-12 10 -51 -1 -12 5 -24 16 -28 15 -6 12 -10 -16 -23 -32 -16 -34 -16 -51 5
-16 20 -25 86 -13 105 6 10 31 9 38 -3z m1816 -69 c2 -62 -1 -76 -16 -88 -13
-9 -22 -10 -29 -3 -13 13 -29 13 -21 0 3 -5 1 -10 -4 -10 -17 0 -13 19 8 41
10 11 26 46 36 79 10 33 19 59 21 57 2 -1 4 -36 5 -76z m-1711 59 c13 -8 13
-10 -2 -10 -9 0 -20 5 -23 10 -8 13 5 13 25 0z m-330 -206 c0 -14 -4 -23 -9
-19 -11 6 -10 45 1 45 4 0 8 -12 8 -26z m299 -59 c-13 -19 -25 -32 -27 -30 -2
2 5 17 17 33 12 17 21 36 22 44 0 10 2 10 6 0 3 -7 -6 -28 -18 -47z m37 -6
c-15 -9 -16 -13 -5 -21 11 -8 10 -9 -3 -4 -10 3 -18 1 -18 -5 0 -6 -5 -7 -11
-4 -13 9 20 44 41 44 11 0 10 -3 -4 -10z m-88 -207 c7 -5 10 -16 6 -25 -4 -11
-1 -17 7 -17 9 0 10 -3 4 -8 -5 -4 -10 -16 -10 -27 0 -14 -6 -19 -19 -17 -17
3 -17 1 4 -32 l22 -36 -27 0 c-26 0 -26 0 -10 -28 16 -27 16 -29 -7 -64 -12
-20 -29 -39 -36 -42 -23 -10 -93 66 -124 134 -17 36 -35 76 -42 90 -6 14 -15
28 -21 32 -5 4 11 8 37 8 26 0 50 5 53 11 4 6 17 14 29 19 27 11 117 12 134 2z
m1728 -63 l-26 -31 0 31 c0 35 42 75 48 46 2 -8 -8 -29 -22 -46z m-2056 -49
c0 -5 -8 -10 -17 -10 -15 0 -16 2 -3 10 19 12 20 12 20 0z m295 -274 c18 -27
8 -69 -19 -79 -22 -9 -62 8 -70 28 -23 62 53 106 89 51z m699 -161 c8 -23 -4
-44 -34 -60 -24 -12 -30 -12 -46 0 -32 24 -47 18 -27 -10 15 -21 24 -25 57
-21 22 2 44 10 50 18 20 26 40 26 58 -1 10 -14 18 -29 18 -32 0 -4 -25 -14
-55 -24 -64 -20 -133 -14 -190 15 -20 10 -44 16 -53 12 -15 -5 -15 -4 -3 11 7
9 20 17 27 17 8 0 14 5 14 10 0 6 -9 10 -20 10 -11 0 -20 -4 -20 -10 0 -5 -10
-10 -21 -10 -16 0 -20 -5 -16 -19 4 -17 2 -18 -15 -8 -16 9 -22 9 -25 0 -2 -7
-10 -10 -17 -7 -17 7 -40 -22 -33 -41 5 -12 10 -13 40 0 52 21 111 25 143 8
38 -19 182 -29 222 -15 51 17 54 4 40 -164 -7 -82 -11 -181 -8 -221 5 -78 17
-96 72 -108 14 -3 30 -14 34 -23 7 -14 23 -92 36 -167 2 -13 -3 -20 -17 -23
-42 -7 -51 -12 -36 -22 8 -4 23 -7 33 -5 16 3 18 -2 16 -31 -2 -26 -6 -33 -18
-29 -8 3 -3 -5 11 -18 14 -12 29 -30 32 -39 5 -15 -1 -17 -56 -16 -58 2 -143
-24 -239 -73 -10 -5 -25 -9 -33 -9 -8 0 -15 -4 -15 -9 0 -8 -11 -13 -60 -28
-24 -7 -149 -17 -160 -13 -3 1 -34 3 -70 5 -83 4 -151 13 -158 20 -3 2 -11 0
-19 -7 -19 -15 -23 -8 -33 58 -4 33 -11 66 -14 74 -7 18 18 22 114 21 60 -1
155 -8 155 -11 0 -11 259 -18 273 -7 6 5 12 7 12 3 0 -3 23 3 52 15 35 14 54
17 62 9 17 -17 28 -12 21 10 -7 21 10 29 18 8 2 -7 7 -10 11 -7 4 4 0 14 -9
22 -12 12 -22 14 -40 7 -14 -5 -25 -7 -25 -4 0 2 -8 0 -18 -5 -11 -6 -32 -13
-48 -17 -45 -11 -282 -14 -344 -3 -30 5 -95 11 -144 15 -102 7 -130 15 -145
42 -17 31 4 204 30 253 5 10 10 55 11 99 1 74 -2 85 -32 133 -26 42 -31 59
-27 91 7 53 36 89 78 98 119 24 186 41 204 51 11 6 25 12 30 12 13 1 7 26 -10
44 -12 13 -16 11 -24 -10 -5 -13 -10 -18 -10 -11 -1 6 -8 12 -16 12 -10 0 -15
-10 -15 -31 l0 -30 -95 3 c-63 2 -96 7 -99 15 -3 7 0 15 6 19 7 4 8 3 4 -4 -4
-7 -2 -12 3 -12 6 0 11 9 11 20 0 11 -4 20 -10 20 -17 0 -11 38 7 49 10 5 26
5 40 0 35 -13 86 -14 109 -1 12 6 36 14 55 17 19 3 42 8 51 11 9 3 32 6 50 8
18 2 54 11 81 20 68 23 123 30 131 17 12 -18 55 -12 68 9 15 24 24 25 32 5z
m-871 -158 c3 -17 6 -51 6 -74 l2 -43 -38 0 c-87 -1 -179 1 -193 4 -57 11
-101 29 -110 46 -14 26 -13 43 2 33 7 -4 30 -8 52 -9 21 -1 42 -7 46 -14 5 -9
9 -9 14 -1 4 6 13 8 19 4 17 -11 81 -10 89 2 5 6 8 6 8 -2 0 -6 9 -9 20 -6 11
3 20 14 20 24 0 16 -7 18 -60 15 -49 -3 -57 -2 -46 9 13 13 97 38 142 43 17 1
23 -5 27 -31z m-209 -152 c58 -7 152 -8 183 -1 28 6 35 -5 39 -56 2 -34 -3
-45 -37 -81 -22 -23 -46 -53 -53 -67 -16 -30 -27 -158 -15 -166 5 -3 9 -14 9
-25 0 -10 4 -27 9 -37 21 -41 33 -121 22 -154 l-11 -33 -74 0 c-41 0 -72 -3
-70 -6 2 -4 -16 -7 -40 -7 -34 -1 -48 4 -64 23 -15 17 -17 25 -9 25 8 0 19 12
25 26 7 14 17 22 22 19 28 -17 -1 65 -38 105 -12 14 -27 41 -32 60 -22 84 -23
93 -11 86 6 -4 11 -4 11 1 0 4 19 8 42 8 32 0 43 4 46 17 2 12 -2 15 -19 11
-16 -5 -12 3 19 33 48 45 66 94 35 94 -26 0 -59 -25 -66 -50 -7 -27 16 -26 28
2 13 28 35 36 28 9 -7 -26 -29 -45 -73 -64 -34 -14 -36 -13 -38 7 -1 12 -8 42
-17 66 -16 46 -11 109 9 111 6 1 25 0 41 0 17 -1 25 2 19 6 -11 8 -34 47 -34
57 0 2 15 1 33 -4 17 -5 54 -11 81 -15z m244 -30 c-6 -14 -13 -23 -15 -21 -5
5 15 46 22 46 3 0 -1 -11 -7 -25z m72 -12 c0 -22 -2 -25 -10 -13 -8 13 -10 13
-10 1 0 -12 -2 -13 -12 -2 -11 10 -9 15 6 27 26 18 26 18 26 -13z m-1676 -147
c-3 -15 -8 -25 -11 -23 -2 3 -1 17 3 31 3 15 8 25 11 23 2 -3 1 -17 -3 -31z
m4048 -65 c2 -17 1 -28 -4 -25 -8 5 -12 54 -4 54 2 0 6 -13 8 -29z m78 -31 c0
-5 -4 -10 -10 -10 -5 0 -10 5 -10 10 0 6 5 10 10 10 6 0 10 -4 10 -10z m-2456
-235 c3 -8 1 -15 -4 -15 -6 0 -10 7 -10 15 0 8 2 15 4 15 2 0 6 -7 10 -15z
m-44 -26 c0 -5 -4 -9 -10 -9 -5 0 -10 7 -10 16 0 8 5 12 10 9 6 -3 10 -10 10
-16z m-50 -32 c0 -5 -4 -5 -10 -2 -5 3 -10 14 -10 23 0 15 2 15 10 2 5 -8 10
-19 10 -23z m-443 -40 c7 -5 10 -13 7 -18 -3 -5 0 -9 5 -9 6 0 9 -10 7 -22 -3
-25 -4 -25 -43 0 -29 18 -38 35 -29 58 5 14 30 10 53 -9z m362 -108 c-5 -40
-13 -77 -19 -83 -7 -7 -10 -6 -10 5 0 12 -2 12 -10 -1 -7 -11 -10 -4 -10 27 0
23 5 43 12 45 6 2 9 12 5 21 -8 22 -74 33 -111 17 -48 -19 -71 -18 -71 4 0 16
10 19 75 22 88 4 117 8 126 17 16 16 20 -7 13 -74z m2495 -45 c9 -8 16 -27 17
-42 0 -24 1 -24 8 -7 9 23 17 -81 31 -425 10 -243 15 -354 26 -574 4 -93 3
-127 -5 -122 -8 5 -11 -16 -11 -68 0 -66 -2 -76 -17 -76 -29 0 -47 17 -51 47
-2 15 -8 33 -14 40 -6 8 -8 33 -4 64 4 28 3 49 -1 46 -4 -3 -9 23 -10 58 -2
34 -6 72 -11 85 -5 13 -3 46 3 79 8 38 9 90 3 165 -6 75 -6 112 1 119 16 16
13 88 -4 117 -29 51 -35 73 -39 150 l-4 79 29 -6 c22 -4 29 -2 29 11 0 12 -8
15 -30 12 -30 -3 -30 -3 -29 48 0 28 3 45 6 38 12 -29 23 4 23 69 0 39 4 69
10 69 6 0 10 9 10 20 0 24 13 26 34 4z m176 -141 c5 -65 14 -215 20 -333 6
-118 15 -287 21 -375 9 -165 12 -422 5 -414 -6 6 -22 259 -46 729 -11 212 -22
419 -25 460 -5 57 -3 72 5 63 7 -6 16 -64 20 -130z m-2706 -77 c-3 -9 -10 -16
-15 -16 -6 0 -5 9 1 21 13 24 24 20 14 -5z m-1520 -28 c-3 -4 -5 -37 -5 -73
-1 -36 -4 -63 -9 -60 -4 3 -6 -4 -3 -14 3 -11 0 -28 -7 -38 -9 -14 -10 -4 -5
47 3 36 6 72 6 80 1 45 12 92 19 79 5 -7 7 -16 4 -21z m4453 -20 c-2 -13 -4
-5 -4 17 -1 22 1 32 4 23 2 -10 2 -28 0 -40z m10 -80 c-3 -7 -5 -2 -5 12 0 14
2 19 5 13 2 -7 2 -19 0 -25z m0 -70 c-3 -7 -5 -2 -5 12 0 14 2 19 5 13 2 -7 2
-19 0 -25z m130 -70 c-3 -7 -5 -2 -5 12 0 14 2 19 5 13 2 -7 2 -19 0 -25z
m-1077 2 c0 7 3 11 6 7 10 -9 -6 -47 -20 -47 -8 0 -13 12 -12 30 1 27 2 28 14
13 8 -12 12 -13 12 -3z m1129 -292 c1 -12 -6 -18 -19 -18 -11 0 -20 3 -20 8 0
4 -3 70 -5 147 l-5 140 25 -130 c13 -71 24 -138 24 -147z m-1126 232 c13 -12
17 -93 5 -107 -7 -9 -7 -17 1 -27 8 -10 9 -16 1 -21 -5 -3 -10 -15 -10 -25 0
-11 -9 -24 -20 -30 -29 -15 -26 -48 5 -56 14 -3 25 -10 25 -16 0 -5 -6 -6 -12
-2 -9 6 -9 3 1 -9 9 -11 11 -26 6 -44 -5 -16 -7 -38 -6 -50 1 -13 -3 -23 -10
-23 -7 0 -10 -3 -6 -6 3 -3 1 -18 -4 -32 -5 -14 -14 -69 -20 -121 -14 -139
-16 -152 -30 -179 -10 -17 -10 -25 -2 -30 11 -7 4 -125 -9 -137 -11 -11 -66 8
-71 25 -2 9 -1 39 3 66 4 27 4 58 0 68 -3 11 1 62 11 115 9 53 15 99 12 103
-2 5 1 8 7 8 8 0 9 10 5 30 -4 20 -3 30 5 30 7 0 10 8 7 20 -3 11 -1 18 3 15
5 -3 11 -19 15 -36 4 -17 9 -28 12 -25 3 2 0 28 -6 56 -8 39 -8 55 2 71 10 17
9 22 -12 38 l-23 18 17 59 c9 32 24 65 33 72 11 8 12 12 3 12 -10 0 -11 9 -7
33 4 17 8 40 9 50 2 20 13 23 20 5 2 -7 6 1 9 19 3 20 1 30 -6 26 -5 -4 -7 1
-3 11 4 9 3 14 -2 11 -5 -3 -12 -1 -16 5 -3 5 2 10 12 10 15 0 16 2 3 11 -11
8 -9 9 10 4 14 -4 29 -11 33 -15z m954 -2 c-3 -8 -6 -5 -6 6 -1 11 2 17 5 13
3 -3 4 -12 1 -19z m-920 -30 c-3 -7 -5 -2 -5 12 0 14 2 19 5 13 2 -7 2 -19 0
-25z m920 -20 c-3 -7 -5 -2 -5 12 0 14 2 19 5 13 2 -7 2 -19 0 -25z m-2607
-230 c61 -19 77 -37 68 -83 -4 -22 -7 -59 -7 -82 -1 -33 -6 -45 -23 -54 -18
-10 -24 -8 -38 9 -10 11 -20 38 -24 60 -4 26 -19 54 -46 83 -22 24 -40 54 -40
66 0 19 4 21 38 16 20 -2 53 -10 72 -15z m-1703 -74 c-3 -3 -12 -4 -19 -1 -8
3 -5 6 6 6 11 1 17 -2 13 -5z m3263 2 c0 -3 -4 -8 -10 -11 -5 -3 -10 -1 -10 4
0 6 5 11 10 11 6 0 10 -2 10 -4z m-3280 -77 c17 -27 34 -42 53 -46 15 -3 30
-10 33 -14 3 -5 16 -9 30 -9 19 0 24 -5 24 -25 0 -25 -8 -31 -26 -17 -5 4 11
-13 36 -38 25 -25 80 -70 123 -100 l77 -54 -27 -28 c-15 -15 -37 -28 -49 -28
-48 0 -74 -18 -74 -50 0 -35 26 -80 46 -80 8 0 14 -6 14 -14 0 -7 14 -16 30
-19 31 -7 43 -37 15 -37 -16 0 -20 -16 -6 -24 4 -3 28 -2 52 3 24 5 36 9 26
10 -15 1 -17 7 -11 39 9 48 11 52 33 52 20 0 35 36 20 46 -12 7 -12 34 0 34
12 0 71 -52 71 -64 0 -5 7 -14 14 -20 22 -16 87 -136 80 -147 -3 -5 -11 -9
-19 -9 -8 0 -15 -15 -18 -37 -7 -50 -5 -83 5 -77 4 3 8 -2 8 -10 0 -9 5 -16
12 -16 6 0 8 -3 5 -7 -4 -3 -2 -12 4 -19 20 -25 4 -42 -33 -35 -27 6 -33 12
-36 36 -1 17 -9 48 -17 71 -12 31 -23 43 -51 53 -41 15 -58 5 -62 -33 -2 -25
6 -31 36 -27 23 3 12 -27 -13 -33 -20 -5 -25 -12 -25 -40 0 -37 12 -46 60 -46
17 0 34 -8 43 -20 7 -11 30 -26 49 -34 23 -10 37 -23 40 -39 4 -21 1 -23 -20
-19 -17 3 -23 1 -18 -7 4 -6 15 -11 24 -11 9 0 25 -7 35 -15 11 -7 24 -12 31
-9 6 2 20 -1 29 -9 17 -12 15 -16 -27 -57 -50 -49 -88 -65 -119 -48 -35 18
-56 -32 -49 -115 1 -10 -5 -25 -13 -33 -8 -9 -15 -22 -15 -30 0 -8 -4 -14 -10
-14 -5 0 -10 9 -10 20 0 11 -11 27 -25 36 -35 23 -133 6 -172 -30 -15 -15 -31
-26 -35 -26 -5 0 -8 -7 -8 -15 0 -8 9 -15 20 -15 40 0 19 -64 -23 -69 -14 -1
-62 -13 -77 -18 -31 -11 -60 -12 -54 -1 4 6 2 8 -4 5 -16 -11 -42 3 -42 22 0
9 6 28 14 42 13 26 13 27 -10 24 -13 -1 -21 2 -18 6 3 5 14 9 25 9 10 0 18 6
16 13 -1 7 8 12 21 11 12 0 22 3 22 8 0 4 6 8 13 8 6 0 25 7 41 15 15 8 32 12
37 9 5 -3 9 -2 8 3 -1 4 2 18 6 31 8 25 15 26 142 22 103 -2 123 4 123 37 0
22 -4 25 -25 21 -29 -6 -29 -6 -10 31 19 37 9 45 -25 21 -35 -25 -42 -25 -65
0 -27 29 -35 25 -35 -20 0 -29 -5 -42 -19 -50 -20 -10 -108 -3 -126 10 -5 4
-23 8 -38 8 -31 -1 -63 24 -73 56 -3 11 -13 28 -21 37 -8 9 -15 27 -15 40 -1
13 -7 31 -14 39 -7 8 -18 34 -25 58 -12 42 -40 72 -65 72 -7 0 -23 -21 -36
-48 -16 -32 -29 -46 -41 -44 -9 2 -17 -3 -17 -10 0 -10 -3 -9 -9 1 -6 9 -6 22
0 32 32 61 -10 139 -75 139 -19 0 -38 5 -41 11 -4 6 -13 8 -20 6 -8 -4 -11 5
-9 28 2 26 -3 35 -23 44 -14 6 -33 31 -45 58 -18 41 -20 54 -10 93 28 117 45
177 58 203 8 16 14 37 14 48 0 11 7 22 16 26 25 9 60 -35 81 -104 l20 -62 -28
-27 c-27 -26 -29 -26 -53 -10 -35 22 -38 21 -30 -20 5 -28 2 -42 -15 -64 -27
-38 -27 -40 12 -40 26 0 35 -6 45 -30 15 -34 32 -31 32 5 0 29 5 32 56 41 l39
6 32 -61 c18 -34 28 -63 22 -66 -17 -11 -9 -35 12 -35 21 0 48 -25 49 -45 0
-5 -7 1 -16 13 -8 12 -25 22 -37 21 l-22 0 23 -9 c12 -5 22 -12 22 -15 0 -4
-4 -3 -10 0 -18 11 -10 -12 10 -30 28 -25 51 -27 74 -7 11 9 16 12 13 6 -9
-15 20 -27 29 -12 5 7 2 8 -6 3 -9 -5 -10 -2 -5 14 4 13 0 31 -12 49 -10 15
-28 45 -38 67 -11 22 -24 43 -30 47 -6 5 -5 8 3 8 6 0 12 5 12 10 0 6 -10 10
-22 10 -12 0 -18 3 -15 6 4 4 0 19 -8 33 -21 37 -38 82 -41 108 -2 12 -8 31
-13 42 -17 31 -13 69 7 76 11 3 24 17 31 31 9 21 14 24 26 14 8 -7 12 -16 9
-21 -6 -10 15 -89 28 -104 9 -10 67 51 68 71 0 6 9 19 20 29 11 10 20 22 20
26 0 4 -11 -3 -25 -17 -14 -14 -25 -30 -25 -36 0 -9 -45 -58 -54 -58 -2 0 -6
11 -8 25 -3 14 -1 25 3 25 5 0 9 5 9 10 0 6 -7 10 -16 10 -8 0 -13 4 -9 10 3
5 12 7 20 4 15 -6 39 31 30 46 -11 18 -27 10 -22 -10 6 -24 -15 -27 -34 -4
-11 14 -9 19 11 35 25 18 25 18 41 -2 14 -18 17 -19 28 -5 7 9 11 23 7 31 -3
10 1 15 14 15 10 0 21 -8 23 -17 4 -17 5 -17 6 0 1 24 -25 32 -56 18 -22 -10
-25 -10 -19 5 4 9 -1 28 -10 42 -9 13 -11 21 -5 18 15 -10 13 5 -4 28 -12 16
-18 17 -27 8 -7 -7 -20 -12 -30 -12 -11 0 -32 -7 -48 -15 -21 -11 -31 -12 -36
-3 -5 7 -3 8 6 3 8 -5 11 -3 8 5 -4 13 28 49 105 118 20 18 37 37 37 42 0 23
27 6 50 -31z m4580 -279 c22 -135 43 -257 46 -271 5 -25 3 -27 -48 -32 -29 -3
-57 -1 -63 4 -11 11 -44 515 -34 530 3 6 16 11 27 12 12 1 22 6 23 12 2 24 10
-22 49 -255z m-193 228 c-3 -8 -6 -5 -6 6 -1 11 2 17 5 13 3 -3 4 -12 1 -19z
m-4202 -88 l3 -31 -24 22 c-22 21 -22 23 -6 35 21 15 24 12 27 -26z m477 -72
c33 -135 44 -229 30 -253 -8 -15 -15 -8 -47 46 -67 114 -145 265 -145 280 0
11 13 16 42 18 23 1 49 6 57 11 9 5 21 10 26 10 6 0 22 -51 37 -112z m-750 58
c11 -16 10 -26 -4 -26 -6 0 -1 -9 11 -19 l23 -20 -34 -18 c-18 -10 -37 -18
-43 -18 -5 0 -15 -4 -22 -8 -14 -9 -43 29 -43 56 0 10 13 32 30 48 23 23 35
29 52 23 13 -4 26 -12 30 -18z m1859 -20 c9 -11 20 -43 24 -71 3 -27 8 -66 12
-86 l5 -36 -58 -7 c-33 -3 -74 -9 -91 -12 -42 -8 -43 7 -7 91 14 33 30 78 35
100 16 67 16 67 41 54 12 -7 30 -21 39 -33z m-1976 15 c3 -5 2 -12 -3 -15 -5
-3 -9 1 -9 9 0 17 3 19 12 6z m478 -22 c18 -21 18 -21 -20 -15 -21 3 -38 5
-39 6 0 0 -1 7 -1 15 0 22 40 18 60 -6z m42 -39 c3 -5 -1 -10 -9 -10 -9 0 -16
5 -16 10 0 6 4 10 9 10 6 0 13 -4 16 -10z m-335 -14 c0 -3 -4 -8 -10 -11 -5
-3 -10 -1 -10 4 0 6 5 11 10 11 6 0 10 -2 10 -4z m3887 -88 c-3 -7 -5 -2 -5
12 0 14 2 19 5 13 2 -7 2 -19 0 -25z m-4600 -20 c-3 -8 -6 -5 -6 6 -1 11 2 17
5 13 3 -3 4 -12 1 -19z m4103 2 c0 -11 -4 -20 -9 -20 -5 0 -7 9 -4 20 3 11 7
20 9 20 2 0 4 -9 4 -20z m-2979 0 c5 0 9 -9 9 -20 0 -15 -7 -20 -27 -20 -16 0
-35 5 -43 10 -13 9 -12 12 5 25 11 9 26 13 33 10 8 -3 18 -5 23 -5z m0 -77 c2
-30 -2 -47 -16 -63 -7 -8 -15 -28 -19 -44 l-7 -29 -20 22 c-11 11 -26 21 -34
21 -18 0 -55 48 -55 71 0 22 11 23 57 7 29 -11 35 -10 53 10 25 27 40 28 41 5z
m3000 -3 c12 -7 19 -21 19 -40 0 -17 4 -30 9 -30 17 0 20 -29 5 -59 -11 -22
-23 -31 -41 -31 -27 0 -83 -49 -83 -74 0 -9 -5 -16 -11 -16 -6 0 -8 13 -5 33
7 46 41 119 51 109 4 -4 5 3 2 15 -3 13 0 26 5 30 7 4 8 1 3 -7 -5 -9 -4 -11
3 -6 7 4 12 13 12 21 0 7 6 15 13 18 8 3 7 10 -7 26 -21 23 -8 28 25 11z
m-221 -15 c0 -8 -4 -15 -8 -15 -5 0 -9 7 -9 15 0 8 4 15 9 15 4 0 8 -7 8 -15z
m-3474 -46 c25 11 26 11 20 -15 -5 -18 -2 -32 9 -44 14 -15 13 -18 -10 -28
-14 -6 -25 -18 -25 -27 0 -22 -18 -18 -25 5 -3 11 -15 20 -26 20 -22 0 -25 13
-6 29 9 6 12 23 9 43 -5 30 -3 32 12 19 13 -11 22 -12 42 -2z m49 -9 c-2 -11
3 -26 11 -34 21 -22 17 -32 -6 -11 -11 10 -18 26 -15 39 5 27 4 26 9 26 3 0 3
-9 1 -20z m3466 -11 c12 -6 20 -19 19 -32 -4 -47 0 -67 15 -67 11 0 15 -11 15
-36 l0 -36 -40 32 c-22 17 -44 29 -50 25 -5 -3 -7 0 -4 9 4 11 -4 17 -31 22
-25 4 -33 10 -26 17 7 7 14 7 23 0 9 -7 21 -5 38 4 l25 14 -31 -6 c-25 -5 -32
-2 -42 17 -9 21 -11 21 -11 4 -1 -14 -4 -17 -11 -10 -18 18 0 43 33 47 18 2
38 5 45 5 7 1 22 -3 33 -9z m-2721 -274 c0 -36 -10 -75 -19 -75 -29 1 -39 38
-25 93 5 23 3 27 -17 28 -24 2 -24 2 -1 6 12 2 22 10 22 16 1 27 40 -40 40
-68z m3186 -16 c3 -5 1 -9 -5 -9 -17 0 -41 12 -41 20 0 10 38 1 46 -11z m-114
-63 c0 -22 2 -69 4 -103 2 -64 -9 -82 -25 -40 -8 21 -61 73 -110 107 l-21 14
23 13 c12 7 29 12 38 13 8 0 26 11 38 24 31 33 51 23 53 -28z m1149 -9 c10
-37 -14 -50 -59 -31 -33 13 -34 20 -9 52 18 23 60 10 68 -21z m-4170 -27 c7 1
23 2 34 1 19 -2 19 -2 2 -12 -24 -14 -77 7 -77 29 0 13 2 13 13 -2 7 -10 20
-17 28 -16z m88 -19 c7 -5 9 -11 5 -14 -5 -3 -15 1 -22 9 -14 16 -5 18 17 5z
m11 -46 c0 -18 -9 -23 -31 -18 -12 3 -19 14 -19 29 0 22 2 23 25 12 14 -6 25
-16 25 -23z m34 4 c-3 -6 0 -16 7 -21 11 -7 9 -8 -5 -4 -16 6 -17 4 -6 -9 15
-18 7 -30 -14 -22 -16 6 -13 29 7 55 12 15 21 16 11 1z m-323 -178 c27 14 32
8 13 -19 -11 -15 -25 -22 -50 -22 -31 0 -34 2 -34 31 0 31 0 31 25 15 20 -13
30 -14 46 -5z m13 -142 c41 -19 45 -69 6 -69 -11 0 -22 -4 -25 -10 -9 -14 -35
-12 -41 3 -4 12 22 87 31 87 2 0 15 -5 29 -11z m-404 -79 c0 -5 -7 -10 -15
-10 -8 0 -15 -5 -15 -12 0 -6 -3 -8 -7 -4 -5 4 1 14 11 22 23 17 26 17 26 4z
m10 -49 c-6 -13 -16 -19 -23 -15 -7 4 -4 -2 6 -13 14 -16 15 -23 6 -29 -8 -4
-10 -3 -5 4 4 7 3 12 -3 12 -5 0 -11 -3 -14 -7 -2 -5 -2 -3 -1 4 2 7 -1 15 -7
19 -6 4 -6 11 2 20 6 7 15 12 19 9 4 -3 11 2 14 11 4 9 9 14 12 11 3 -3 1 -15
-6 -26z m4587 -173 c-2 -18 -4 -4 -4 32 0 36 2 50 4 33 2 -18 2 -48 0 -65z"/>
<path d="M3740 6379 c0 -5 5 -7 10 -4 6 3 10 8 10 11 0 2 -4 4 -10 4 -5 0 -10
-5 -10 -11z"/>
<path d="M3737 6353 c-4 -3 -7 -24 -7 -45 0 -36 -2 -38 -24 -32 -16 4 -33 0
-48 -11 -16 -12 -18 -16 -5 -11 12 4 26 -3 43 -21 15 -16 28 -23 33 -17 7 7
22 144 16 144 -1 0 -5 -3 -8 -7z"/>
<path d="M3825 6300 c3 -5 8 -10 11 -10 2 0 4 5 4 10 0 6 -5 10 -11 10 -5 0
-7 -4 -4 -10z"/>
<path d="M3617 6243 c-4 -3 -7 -11 -7 -17 0 -6 5 -5 12 2 6 6 9 14 7 17 -3 3
-9 2 -12 -2z"/>
<path d="M3535 6220 l-50 -19 37 -1 c20 0 43 -3 51 -6 10 -3 16 3 19 20 6 30
8 30 -57 6z"/>
<path d="M3343 6169 c-45 -29 -41 -34 7 -9 38 19 50 30 33 30 -5 0 -23 -10
-40 -21z"/>
<path d="M3596 6111 c-4 -7 -5 -15 -2 -18 9 -9 19 4 14 18 -4 11 -6 11 -12 0z"/>
<path d="M1380 6100 c-8 -5 -12 -11 -9 -14 2 -3 11 -1 19 4 8 5 12 11 9 14 -2
3 -11 1 -19 -4z"/>
<path d="M3971 6004 c0 -11 3 -14 6 -6 3 7 2 16 -1 19 -3 4 -6 -2 -5 -13z"/>
<path d="M3890 6000 c0 -5 5 -10 10 -10 6 0 10 5 10 10 0 6 -4 10 -10 10 -5 0
-10 -4 -10 -10z"/>
<path d="M3984 5804 c3 -26 6 -54 6 -64 0 -13 7 -16 31 -12 28 4 30 7 25 35
-3 16 -6 38 -6 48 0 12 -7 19 -20 19 -11 0 -20 5 -20 10 0 6 -5 10 -11 10 -8
0 -10 -15 -5 -46z"/>
<path d="M3785 5719 c-9 -14 -2 -20 14 -10 8 6 9 11 3 15 -6 3 -14 1 -17 -5z"/>
<path d="M3898 5723 c7 -3 16 -2 19 1 4 3 -2 6 -13 5 -11 0 -14 -3 -6 -6z"/>
<path d="M3788 5639 c-25 -14 -24 -59 1 -59 20 0 31 18 31 51 0 21 -7 23 -32
8z"/>
<path d="M1830 5600 c0 -5 7 -10 16 -10 8 0 12 5 9 10 -3 6 -10 10 -16 10 -5
0 -9 -4 -9 -10z"/>
<path d="M3486 5575 c-11 -11 -16 -29 -14 -49 3 -28 6 -31 36 -28 21 2 32 -1
32 -10 0 -8 5 -6 11 5 8 14 14 15 24 7 10 -8 15 -8 21 1 4 7 3 9 -4 5 -5 -3
-12 0 -15 6 -3 10 -7 10 -20 -1 -23 -18 -21 -9 3 19 20 23 21 23 36 4 15 -18
15 -18 5 2 -22 47 -86 68 -115 39z"/>
<path d="M1699 5543 c-1 -5 -1 -11 0 -15 0 -5 -4 -8 -11 -8 -24 0 17 -29 50
-36 28 -6 32 -4 32 14 0 30 -67 72 -71 45z"/>
<path d="M1620 5350 c0 -5 7 -10 16 -10 8 0 12 5 9 10 -3 6 -10 10 -16 10 -5
0 -9 -4 -9 -10z"/>
<path d="M3640 5329 c0 -5 5 -7 10 -4 6 3 10 8 10 11 0 2 -4 4 -10 4 -5 0 -10
-5 -10 -11z"/>
<path d="M3776 5261 c-19 -21 -19 -21 -1 -15 14 6 16 4 10 -7 -6 -11 -5 -11 4
-3 7 7 11 20 9 29 -3 15 -5 15 -22 -4z"/>
<path d="M3748 5223 c7 -3 16 -2 19 1 4 3 -2 6 -13 5 -11 0 -14 -3 -6 -6z"/>
<path d="M1065 5201 c-8 -26 2 -47 31 -60 50 -23 62 25 15 58 -36 26 -38 26
-46 2z"/>
<path d="M1622 5109 c2 -6 8 -10 13 -10 5 0 11 4 13 10 2 6 -4 11 -13 11 -9 0
-15 -5 -13 -11z"/>
<path d="M3865 5000 c-3 -5 1 -10 9 -10 9 0 16 5 16 10 0 6 -4 10 -9 10 -6 0
-13 -4 -16 -10z"/>
<path d="M3378 4953 c-28 -7 -34 -44 -9 -64 17 -14 26 -15 50 -6 17 6 28 15
25 19 -3 4 2 8 11 8 9 0 13 5 10 10 -4 6 -12 7 -18 4 -7 -4 -9 -4 -5 1 4 4 3
14 -3 22 -11 13 -28 15 -61 6z"/>
<path d="M4000 4849 c0 -11 5 -17 10 -14 6 3 10 13 10 21 0 8 -4 14 -10 14 -5
0 -10 -9 -10 -21z"/>
<path d="M3827 4803 c-12 -12 -7 -22 8 -17 8 4 15 10 15 15 0 11 -14 12 -23 2z"/>
<path d="M3900 4780 c0 -5 7 -10 15 -10 8 0 15 5 15 10 0 6 -7 10 -15 10 -8 0
-15 -4 -15 -10z"/>
<path d="M3994 4756 c-8 -22 3 -33 18 -18 9 9 9 15 0 24 -9 9 -13 7 -18 -6z"/>
<path d="M3855 4728 c-14 -35 -12 -48 10 -48 15 0 25 22 25 56 0 34 -19 30
-35 -8z"/>
<path d="M4105 4740 c-3 -5 -1 -10 4 -10 6 0 11 5 11 10 0 6 -2 10 -4 10 -3 0
-8 -4 -11 -10z"/>
<path d="M3926 4691 c-4 -5 -2 -12 3 -15 5 -4 12 -2 15 3 4 5 2 12 -3 15 -5 4
-12 2 -15 -3z"/>
<path d="M1635 4640 c4 -6 11 -8 16 -5 14 9 11 15 -7 15 -8 0 -12 -5 -9 -10z"/>
<path d="M4097 4626 c-3 -8 -3 -16 0 -19 9 -10 33 5 33 19 0 18 -26 18 -33 0z"/>
<path d="M1023 4555 c-7 -7 -10 -26 -9 -42 2 -15 4 -36 5 -45 1 -23 43 -24 65
-3 37 37 26 85 -19 85 -13 0 -25 4 -27 9 -1 5 -8 3 -15 -4z"/>
<path d="M3985 4542 c-32 -7 -66 -34 -63 -49 2 -8 5 -13 8 -12 3 1 15 -3 28
-10 12 -6 28 -9 35 -4 6 4 20 8 30 8 20 2 46 33 47 56 0 15 -41 21 -85 11z"/>
<path d="M3775 4480 c-3 -5 -2 -10 4 -10 5 0 13 5 16 10 3 6 2 10 -4 10 -5 0
-13 -4 -16 -10z"/>
<path d="M3837 4330 c-12 -45 -9 -56 10 -38 13 13 14 22 6 40 l-10 22 -6 -24z"/>
<path d="M827 4253 c-14 -50 -17 -75 -11 -85 10 -16 33 31 34 70 0 34 -15 44
-23 15z"/>
<path d="M3775 4210 c-3 -5 -1 -10 4 -10 6 0 11 5 11 10 0 6 -2 10 -4 10 -3 0
-8 -4 -11 -10z"/>
<path d="M3702 4176 c1 -10 8 -17 13 -17 15 1 12 24 -3 29 -9 3 -13 -2 -10
-12z"/>
<path d="M3920 4124 c0 -9 5 -14 12 -12 18 6 21 28 4 28 -9 0 -16 -7 -16 -16z"/>
<path d="M805 4031 c-3 -5 -1 -12 5 -16 5 -3 10 1 10 9 0 18 -6 21 -15 7z"/>
<path d="M3935 3970 c-3 -5 -1 -10 4 -10 6 0 11 5 11 10 0 6 -2 10 -4 10 -3 0
-8 -4 -11 -10z"/>
<path d="M4055 3930 c-4 -6 -3 -16 3 -22 6 -6 12 -6 17 2 4 6 3 16 -3 22 -6 6
-12 6 -17 -2z"/>
<path d="M3960 3864 c0 -8 5 -12 10 -9 6 4 8 11 5 16 -9 14 -15 11 -15 -7z"/>
<path d="M792 3825 c0 -16 2 -22 5 -12 2 9 2 23 0 30 -3 6 -5 -1 -5 -18z"/>
<path d="M990 3835 c0 -8 5 -15 10 -15 6 0 10 7 10 15 0 8 -4 15 -10 15 -5 0
-10 -7 -10 -15z"/>
<path d="M3826 3825 c4 -8 8 -15 10 -15 2 0 4 7 4 15 0 8 -4 15 -10 15 -5 0
-7 -7 -4 -15z"/>
<path d="M4019 3745 c-53 -26 -59 -54 -14 -67 37 -10 74 4 98 38 39 52 -7 68
-84 29z"/>
<path d="M770 3679 c0 -5 5 -7 10 -4 6 3 10 8 10 11 0 2 -4 4 -10 4 -5 0 -10
-5 -10 -11z"/>
<path d="M772 3630 c0 -14 2 -19 5 -12 2 6 2 18 0 25 -3 6 -5 1 -5 -13z"/>
<path d="M3990 3325 c0 -8 7 -15 15 -15 8 0 15 7 15 15 0 8 -7 15 -15 15 -8 0
-15 -7 -15 -15z"/>
<path d="M3876 3262 c-3 -6 -1 -14 5 -17 15 -10 25 3 12 16 -7 7 -13 7 -17 1z"/>
<path d="M3950 3230 c0 -5 5 -10 10 -10 6 0 10 5 10 10 0 6 -4 10 -10 10 -5 0
-10 -4 -10 -10z"/>
<path d="M1300 3220 c0 -5 5 -10 11 -10 5 0 7 5 4 10 -3 6 -8 10 -11 10 -2 0
-4 -4 -4 -10z"/>
<path d="M1313 3203 c-15 -5 -18 -73 -4 -73 5 0 12 9 16 19 4 12 12 17 24 14
22 -6 34 9 25 31 -6 15 -35 20 -61 9z m52 -14 c11 -16 0 -21 -31 -13 -25 6
-26 8 -9 15 28 11 33 10 40 -2z"/>
<path d="M1401 3184 c0 -11 3 -14 6 -6 3 7 2 16 -1 19 -3 4 -6 -2 -5 -13z"/>
<path d="M4016 3171 c-4 -7 -5 -15 -2 -18 9 -9 19 4 14 18 -4 11 -6 11 -12 0z"/>
<path d="M4035 3060 c-3 -5 -1 -10 4 -10 6 0 11 5 11 10 0 6 -2 10 -4 10 -3 0
-8 -4 -11 -10z"/>
<path d="M1310 2926 c0 -9 5 -16 10 -16 6 0 10 4 10 9 0 6 -4 13 -10 16 -5 3
-10 -1 -10 -9z"/>
<path d="M840 2850 c0 -5 5 -10 11 -10 5 0 7 5 4 10 -3 6 -8 10 -11 10 -2 0
-4 -4 -4 -10z"/>
<path d="M1043 2783 c-18 -7 -16 -20 3 -27 21 -8 34 1 27 19 -5 16 -10 17 -30
8z"/>
<path d="M750 2740 c0 -5 6 -10 14 -10 8 0 18 5 21 10 3 6 -3 10 -14 10 -12 0
-21 -4 -21 -10z"/>
<path d="M1082 2738 c5 -15 28 -18 29 -3 0 6 -7 12 -17 13 -10 3 -15 -1 -12
-10z"/>
<path d="M3949 2679 c-8 -16 -18 -20 -39 -17 -33 5 -34 -6 -6 -89 10 -29 16
-63 14 -75 -2 -17 2 -24 19 -26 22 -3 22 -2 8 32 -26 61 -20 90 20 109 38 18
41 24 23 62 -14 30 -24 32 -39 4z"/>
<path d="M1032 2638 c5 -15 28 -18 29 -3 0 6 -7 12 -17 13 -10 3 -15 -1 -12
-10z"/>
<path d="M1140 2565 c0 -8 5 -15 10 -15 6 0 10 7 10 15 0 8 -4 15 -10 15 -5 0
-10 -7 -10 -15z"/>
<path d="M797 2544 c-8 -8 1 -24 14 -24 5 0 9 7 9 15 0 15 -12 20 -23 9z"/>
<path d="M3800 2509 c0 -5 5 -7 10 -4 6 3 10 8 10 11 0 2 -4 4 -10 4 -5 0 -10
-5 -10 -11z"/>
<path d="M4065 2439 c-4 -6 -2 -15 5 -19 17 -10 42 -1 37 14 -5 16 -34 19 -42
5z"/>
<path d="M824 2367 c-13 -35 0 -61 36 -69 49 -10 130 1 130 18 0 8 -5 14 -12
14 -6 0 -21 9 -32 19 -29 27 -114 39 -122 18z"/>
<path d="M770 2260 c0 -5 7 -10 15 -10 8 0 15 5 15 10 0 6 -7 10 -15 10 -8 0
-15 -4 -15 -10z"/>
<path d="M3845 2241 c-3 -5 5 -17 17 -25 12 -9 18 -16 12 -16 -5 0 -10 -9 -11
-20 -2 -29 33 -26 39 3 7 35 -8 67 -31 67 -11 0 -22 -4 -26 -9z"/>
<path d="M3830 2206 c0 -8 4 -17 9 -20 5 -4 7 3 4 14 -6 23 -13 26 -13 6z"/>
<path d="M4001 2205 c-8 -42 -6 -135 5 -139 21 -8 35 16 20 33 -8 9 -16 39
-19 66 -2 28 -4 46 -6 40z"/>
<path d="M1180 2170 c0 -5 5 -10 10 -10 6 0 10 5 10 10 0 6 -4 10 -10 10 -5 0
-10 -4 -10 -10z"/>
<path d="M817 2164 c-9 -10 2 -24 19 -24 8 0 14 7 14 15 0 15 -21 21 -33 9z"/>
<path d="M3957 2124 c-13 -14 -7 -32 11 -30 9 2 17 9 17 16 0 15 -18 24 -28
14z"/>
<path d="M925 2080 c3 -5 8 -10 11 -10 2 0 4 5 4 10 0 6 -5 10 -11 10 -5 0 -7
-4 -4 -10z"/>
<path d="M1247 2034 c-10 -11 3 -24 24 -24 10 0 19 7 19 15 0 15 -31 21 -43 9z"/>
<path d="M797 2013 c-22 -21 4 -45 37 -34 17 7 17 8 2 24 -19 18 -29 21 -39
10z"/>
<path d="M740 1960 c0 -5 5 -10 11 -10 5 0 7 5 4 10 -3 6 -8 10 -11 10 -2 0
-4 -4 -4 -10z"/>
<path d="M3895 1931 c-6 -11 9 -23 19 -14 9 9 7 23 -3 23 -6 0 -12 -4 -16 -9z"/>
<path d="M3952 1601 c2 -7 7 -12 11 -12 12 1 9 15 -3 20 -7 2 -11 -2 -8 -8z"/>
<path d="M590 5900 c0 -5 5 -10 10 -10 6 0 10 5 10 10 0 6 -4 10 -10 10 -5 0
-10 -4 -10 -10z"/>
<path d="M437 5681 c-4 -18 -7 -50 -6 -70 l1 -36 9 40 c6 22 9 54 7 70 l-3 30
-8 -34z"/>
<path d="M2395 3981 c-3 -5 0 -13 6 -17 8 -5 9 -3 4 6 -6 10 -4 12 9 7 10 -4
20 -7 22 -7 2 0 4 -8 5 -17 0 -11 3 -13 6 -5 2 6 9 9 15 6 6 -4 5 2 -1 15 -12
21 -55 29 -66 12z"/>
<path d="M2995 3770 c-3 -5 3 -10 14 -10 12 0 21 5 21 10 0 6 -6 10 -14 10 -8
0 -18 -4 -21 -10z"/>
<path d="M2620 3690 c0 -5 7 -10 15 -10 8 0 15 5 15 10 0 6 -7 10 -15 10 -8 0
-15 -4 -15 -10z"/>
<path d="M2665 3691 c-3 -5 -1 -12 5 -16 12 -7 30 2 30 16 0 12 -27 12 -35 0z"/>
<path d="M2570 3680 c0 -5 9 -10 20 -10 11 0 20 5 20 10 0 6 -9 10 -20 10 -11
0 -20 -4 -20 -10z"/>
<path d="M2826 3204 c-41 -41 -24 -116 28 -122 59 -7 86 69 41 113 -28 29 -47
31 -69 9z"/>
<path d="M3290 2880 c0 -5 5 -10 11 -10 5 0 7 5 4 10 -3 6 -8 10 -11 10 -2 0
-4 -4 -4 -10z"/>
<path d="M3320 2880 c0 -5 7 -10 16 -10 8 0 12 5 9 10 -3 6 -10 10 -16 10 -5
0 -9 -4 -9 -10z"/>
<path d="M3211 2824 c0 -11 3 -14 6 -6 3 7 2 16 -1 19 -3 4 -6 -2 -5 -13z"/>
<path d="M3176 2811 c-4 -7 -5 -15 -2 -18 9 -9 19 4 14 18 -4 11 -6 11 -12 0z"/>
<path d="M3147 2793 c-4 -3 -7 -11 -7 -17 0 -6 5 -5 12 2 6 6 9 14 7 17 -3 3
-9 2 -12 -2z"/>
<path d="M2601 2780 c-16 -9 -6 -30 15 -30 15 0 20 25 6 34 -4 2 -14 1 -21 -4z"/>
<path d="M2660 2760 c0 -11 7 -20 15 -20 17 0 18 2 9 24 -9 23 -24 20 -24 -4z"/>
<path d="M2702 2764 c1 -9 9 -19 16 -22 9 -3 13 2 10 14 -1 9 -9 19 -16 22 -9
3 -13 -2 -10 -14z"/>
<path d="M2747 2766 c-7 -16 1 -26 20 -26 7 0 13 9 13 20 0 23 -25 27 -33 6z"/>
<path d="M2806 2764 c-6 -16 17 -29 34 -19 16 10 12 22 -9 28 -12 3 -22 -1
-25 -9z"/>
<path d="M3107 2773 c-4 -3 -7 -11 -7 -17 0 -6 5 -5 12 2 6 6 9 14 7 17 -3 3
-9 2 -12 -2z"/>
<path d="M2870 2746 c0 -21 21 -31 30 -15 5 7 6 17 4 21 -9 14 -34 9 -34 -6z"/>
<path d="M3062 2748 c-6 -6 -12 -19 -12 -27 0 -13 2 -13 16 1 9 9 15 21 13 27
-3 9 -8 8 -17 -1z"/>
<path d="M2930 2736 c0 -21 21 -31 31 -15 14 22 11 29 -11 29 -11 0 -20 -6
-20 -14z"/>
<path d="M2993 2734 c-7 -18 11 -39 26 -30 17 11 13 46 -4 46 -9 0 -18 -7 -22
-16z"/>
<path d="M2240 3630 c0 -18 3 -19 20 -10 22 12 18 30 -6 30 -8 0 -14 -9 -14
-20z"/>
<path d="M2515 1830 c3 -5 13 -10 21 -10 8 0 14 5 14 10 0 6 -9 10 -21 10 -11
0 -17 -4 -14 -10z"/>
<path d="M860 1701 c0 -5 9 -11 20 -14 24 -6 27 8 4 17 -21 8 -24 8 -24 -3z"/>
<path d="M940 1541 c0 -6 5 -13 10 -16 6 -3 10 1 10 9 0 9 -4 16 -10 16 -5 0
-10 -4 -10 -9z"/>
<path d="M930 1495 c0 -8 5 -15 10 -15 6 0 10 7 10 15 0 8 -4 15 -10 15 -5 0
-10 -7 -10 -15z"/>
<path d="M839 1242 c-24 -14 -27 -23 -28 -68 0 -60 17 -85 42 -59 9 8 20 15
25 15 6 0 12 5 14 12 3 7 28 -7 66 -35 41 -32 59 -52 56 -62 -4 -8 -2 -15 4
-15 6 0 16 -2 24 -5 21 -8 41 31 28 56 -9 16 -14 18 -25 9 -15 -13 -56 4 -113
48 -24 18 -31 30 -26 44 7 23 -14 78 -30 77 -6 0 -23 -8 -37 -17z m56 -26 c8
-22 6 -30 -7 -37 -10 -5 -15 -16 -12 -24 4 -8 1 -15 -5 -15 -6 0 -11 5 -11 10
0 6 -4 10 -9 10 -5 0 -7 -10 -4 -21 4 -16 2 -20 -8 -17 -19 6 -22 98 -4 98 7
0 16 7 19 16 9 22 29 12 41 -20z"/>
<path d="M865 1200 c4 -6 11 -8 16 -5 14 9 11 15 -7 15 -8 0 -12 -5 -9 -10z"/>
<path d="M700 1210 c0 -5 5 -10 10 -10 6 0 10 5 10 10 0 6 -4 10 -10 10 -5 0
-10 -4 -10 -10z"/>
<path d="M967 913 c-13 -13 -7 -53 8 -53 8 0 15 3 15 8 0 4 3 17 6 30 5 15 2
22 -8 22 -8 0 -18 -3 -21 -7z"/>
<path d="M879 820 c-10 -28 -39 -43 -39 -20 0 22 -19 8 -29 -21 -6 -18 -11
-34 -11 -35 0 -2 18 -4 41 -4 28 0 51 -8 74 -26 35 -27 49 -25 73 8 10 14 17
16 27 8 10 -8 14 -8 17 1 3 8 9 9 18 4 8 -5 23 -10 34 -11 93 -13 95 -13 101
5 6 21 -8 66 -25 76 -6 3 -23 -4 -39 -18 -39 -33 -97 -28 -159 15 -26 17 -48
35 -50 40 -7 17 -24 7 -33 -22z m281 -44 c0 -8 -4 -17 -8 -20 -4 -2 -8 4 -8
15 0 10 4 19 8 19 4 0 8 -6 8 -14z m-195 -56 c-3 -5 -12 -10 -18 -10 -7 0 -6
4 3 10 19 12 23 12 15 0z"/>
<path d="M1288 682 c-8 -12 -18 -19 -21 -15 -4 3 -7 1 -7 -5 0 -16 12 -15 34
1 11 8 17 20 14 27 -3 10 -9 8 -20 -8z"/>
<path d="M3973 1248 c-2 -16 1 -18 10 -9 7 7 8 14 1 21 -6 6 -10 2 -11 -12z"/>
<path d="M1270 1006 c0 -8 5 -18 10 -21 6 -3 10 1 10 9 0 8 -4 18 -10 21 -5 3
-10 -1 -10 -9z"/>
<path d="M4450 7450 c6 -11 13 -20 15 -20 3 0 5 9 5 20 0 11 -7 20 -15 20 -13
0 -14 -4 -5 -20z"/>
<path d="M4735 7460 c3 -5 8 -10 11 -10 2 0 4 5 4 10 0 6 -5 10 -11 10 -5 0
-7 -4 -4 -10z"/>
<path d="M4816 7458 c4 -7 27 -33 50 -58 23 -25 51 -56 63 -70 11 -14 20 -20
21 -14 0 17 -110 148 -127 152 -11 3 -13 0 -7 -10z"/>
<path d="M5036 7455 c4 -8 8 -15 10 -15 2 0 4 7 4 15 0 8 -4 15 -10 15 -5 0
-7 -7 -4 -15z"/>
<path d="M5102 7441 c3 -22 7 -26 33 -23 17 2 35 10 41 18 19 24 24 16 24 -35
0 -29 5 -51 12 -53 24 -8 -4 -28 -39 -28 -20 0 -33 -3 -30 -7 7 -6 -11 -33
-22 -33 -4 0 -5 18 -3 39 3 34 8 40 35 46 29 7 30 8 9 12 -13 3 -38 -3 -57
-11 -18 -9 -46 -16 -62 -16 -15 0 -23 -4 -17 -8 6 -4 15 -18 19 -32 7 -24 7
-24 -12 -7 -11 9 -26 17 -34 17 -9 0 -7 -5 6 -12 21 -12 35 -28 35 -41 0 -5
-5 -5 -11 -1 -7 4 -10 1 -7 -7 6 -17 53 -17 366 -4 l212 8 0 104 0 103 -174 0
-175 0 -3 -42 c-2 -23 -8 -43 -16 -44 -7 -1 -8 0 -2 3 5 2 10 22 10 44 l0 40
-71 -2 c-69 -2 -70 -2 -67 -28z m-7 -111 c-28 -12 -37 -12 -30 0 3 6 16 10 28
9 21 0 21 -1 2 -9z m-1 -55 c-4 -8 -9 -15 -13 -15 -4 0 -8 7 -8 15 0 8 6 15
13 15 8 0 11 -6 8 -15z m133 -1 c-3 -3 -12 -4 -19 -1 -8 3 -5 6 6 6 11 1 17
-2 13 -5z"/>
<path d="M4921 7434 c0 -11 3 -14 6 -6 3 7 2 16 -1 19 -3 4 -6 -2 -5 -13z"/>
<path d="M4627 7421 c12 -11 23 -25 25 -32 2 -7 9 -9 15 -6 13 8 -30 57 -49
57 -7 0 -2 -9 9 -19z"/>
<path d="M4544 7393 c-9 -14 -5 -23 20 -45 43 -39 59 -37 50 7 -5 26 -3 35 7
36 16 1 -28 16 -51 18 -8 1 -20 -7 -26 -16z"/>
<path d="M5020 7395 c-11 -13 -8 -15 16 -15 16 0 25 4 19 8 -5 4 -13 11 -16
15 -3 4 -12 1 -19 -8z"/>
<path d="M4940 7397 c0 -9 42 -47 52 -47 4 0 8 7 8 15 0 8 -8 15 -18 15 -10 0
-23 5 -30 12 -7 7 -12 9 -12 5z"/>
<path d="M4800 7372 c0 -12 19 -26 26 -19 2 2 -2 10 -11 17 -9 8 -15 8 -15 2z"/>
<path d="M4682 7358 c-15 -15 -16 -54 -2 -63 6 -3 10 0 10 7 0 8 9 21 20 31
21 18 19 37 -4 37 -6 0 -17 -5 -24 -12z"/>
<path d="M4800 7328 c0 -12 18 -18 34 -12 25 9 19 22 -9 20 -14 0 -25 -4 -25
-8z"/>
<path d="M4190 7321 c0 -5 7 -11 15 -15 8 -3 15 -1 15 3 0 5 -7 11 -15 15 -8
3 -15 1 -15 -3z"/>
<path d="M4620 7311 c-22 -6 -23 -8 -7 -14 24 -9 24 -9 31 8 3 8 4 15 3 14 -1
-1 -13 -4 -27 -8z"/>
<path d="M5455 7243 c-38 -2 -75 -8 -81 -14 -8 -7 -14 -6 -18 3 -5 10 -7 10
-12 0 -3 -6 -10 -9 -16 -6 -6 4 -14 0 -19 -7 -8 -12 -10 -12 -18 0 -6 10 -13
11 -29 2 -11 -6 -32 -11 -46 -11 -14 0 -28 -4 -31 -10 -3 -5 -15 -10 -26 -10
-10 0 -19 5 -19 10 0 6 -11 10 -24 10 -17 0 -27 -7 -32 -22 -8 -24 -6 -50 4
-58 11 -8 52 -94 52 -108 0 -9 20 -11 83 -8 73 4 76 4 22 -3 -77 -11 -97 -19
-91 -40 3 -9 10 -36 16 -61 7 -25 15 -49 18 -55 4 -5 7 -23 8 -40 1 -16 6 -68
12 -115 6 -47 14 -129 18 -182 l6 -97 59 6 c49 5 60 3 65 -11 4 -10 -1 -26
-13 -39 -11 -12 -26 -32 -32 -44 -6 -13 -18 -23 -26 -23 -9 0 -15 -10 -16 -27
-1 -21 -4 -15 -14 22 l-13 50 2 -95 c1 -52 10 -149 18 -215 22 -167 38 -315
37 -345 l-1 -25 -10 28 c-5 15 -14 27 -19 27 -14 0 -11 -15 10 -57 13 -27 22
-80 31 -178 6 -77 16 -153 20 -170 12 -45 22 -120 14 -113 -3 4 -10 22 -14 40
-6 29 -7 26 -8 -22 0 -58 -5 -102 -46 -425 -30 -235 -64 -558 -59 -564 4 -5
-11 -25 138 184 147 207 179 252 218 302 l27 36 0 1133 0 1133 -27 4 -28 4 28
2 27 1 0 105 0 105 -37 -2 c-21 -1 -69 -4 -108 -5z m-232 -90 c-7 -2 -21 -2
-30 0 -10 3 -4 5 12 5 17 0 24 -2 18 -5z m-98 -13 c3 -6 -1 -7 -9 -4 -18 7
-21 14 -7 14 6 0 13 -4 16 -10z m392 -116 c-7 -8 -97 -7 -105 1 -3 3 21 5 53
5 32 0 56 -3 52 -6z m-144 -11 c-7 -2 -19 -2 -25 0 -7 3 -2 5 12 5 14 0 19 -2
13 -5z m-19 -1688 c3 -8 1 -15 -4 -15 -6 0 -10 7 -10 15 0 8 2 15 4 15 2 0 6
-7 10 -15z m23 -67 c-3 -8 -6 -5 -6 6 -1 11 2 17 5 13 3 -3 4 -12 1 -19z"/>
<path d="M5065 7200 c3 -5 8 -10 11 -10 2 0 4 5 4 10 0 6 -5 10 -11 10 -5 0
-7 -4 -4 -10z"/>
<path d="M4430 7061 c0 -6 5 -13 10 -16 6 -3 10 1 10 9 0 9 -4 16 -10 16 -5 0
-10 -4 -10 -9z"/>
<path d="M4930 6387 c0 -45 12 -87 26 -87 7 0 15 -15 18 -32 13 -78 15 -78 11
-1 -3 72 -7 87 -29 114 -26 30 -26 30 -26 6z"/>
<path d="M4902 6120 c0 -19 2 -27 5 -17 2 9 2 25 0 35 -3 9 -5 1 -5 -18z"/>
<path d="M4920 6120 c-1 -19 -4 -49 -6 -67 -2 -18 1 -35 7 -39 16 -10 17 -4 9
71 -5 45 -8 58 -10 35z"/>
<path d="M4977 6013 c-7 -41 -27 -70 -27 -38 0 9 -4 14 -9 11 -13 -8 -1 -46
14 -46 14 0 40 81 33 102 -3 7 -8 -6 -11 -29z"/>
<path d="M4954 5868 c27 -156 33 -182 37 -153 7 51 -13 173 -29 180 -11 4 -13
-2 -8 -27z"/>
<path d="M4855 5590 c-3 -5 1 -10 9 -10 9 0 16 5 16 10 0 6 -4 10 -9 10 -6 0
-13 -4 -16 -10z"/>
<path d="M4846 5522 c-10 -30 -41 -45 -77 -37 -41 9 -76 -24 -59 -55 6 -11 15
-20 20 -20 6 0 10 -7 10 -15 0 -20 46 -30 65 -15 8 7 26 10 40 8 14 -3 28 -1
31 4 3 4 10 6 15 3 5 -4 9 20 8 57 0 35 -3 57 -6 51 -8 -21 -21 -15 -31 15 -9
27 -9 27 -16 4z"/>
<path d="M4691 5484 c0 -11 3 -14 6 -6 3 7 2 16 -1 19 -3 4 -6 -2 -5 -13z"/>
<path d="M4771 5324 c0 -11 3 -14 6 -6 3 7 2 16 -1 19 -3 4 -6 -2 -5 -13z"/>
<path d="M4642 5260 c0 -19 2 -27 5 -17 2 9 2 25 0 35 -3 9 -5 1 -5 -18z"/>
<path d="M4650 4951 c0 -6 5 -13 10 -16 6 -3 10 1 10 9 0 9 -4 16 -10 16 -5 0
-10 -4 -10 -9z"/>
<path d="M4656 4833 c-4 -9 -2 -21 4 -27 5 -5 10 -19 11 -30 0 -19 1 -19 10 2
9 25 2 72 -11 72 -4 0 -11 -8 -14 -17z"/>
<path d="M4747 4778 c6 -56 23 -91 23 -47 0 42 -12 99 -21 99 -4 0 -5 -24 -2
-52z"/>
<path d="M4683 4610 c0 -36 2 -50 4 -32 2 17 2 47 0 65 -2 17 -4 3 -4 -33z"/>
<path d="M5233 1355 c0 -22 2 -30 4 -17 2 12 2 30 0 40 -3 9 -5 -1 -4 -23z"/>
<path d="M5243 1140 c0 -41 2 -58 4 -37 2 20 2 54 0 75 -2 20 -4 3 -4 -38z"/>
<path d="M5025 1138 c-3 -7 -1 -26 4 -43 9 -29 9 -29 10 13 1 41 -5 54 -14 30z"/>
<path d="M5204 1125 c-8 -19 5 -89 14 -80 11 11 13 95 2 95 -6 0 -13 -7 -16
-15z"/>
<path d="M2300 955 c0 -8 -6 -15 -13 -15 -7 0 -18 -9 -25 -20 -10 -16 -10 -20
2 -20 7 0 19 7 26 15 7 8 17 12 23 8 7 -4 8 0 3 12 -4 11 -2 22 6 27 10 6 8 8
-4 8 -10 0 -18 -7 -18 -15z"/>
<path d="M4993 875 c0 -27 2 -38 4 -22 2 15 2 37 0 50 -2 12 -4 0 -4 -28z"/>
<path d="M4982 647 c-14 -33 -15 -48 -4 -29 5 7 9 -9 11 -40 1 -29 5 -91 10
-138 l8 -85 0 130 c1 72 -3 144 -7 160 l-7 30 -11 -28z"/>
<path d="M4300 554 c0 -21 -3 -84 -6 -139 -5 -98 -5 -99 11 -65 14 29 15 54
10 135 -7 102 -15 140 -15 69z"/>
<path d="M4971 534 c0 -11 3 -14 6 -6 3 7 2 16 -1 19 -3 4 -6 -2 -5 -13z"/>
<path d="M4972 400 c0 -14 2 -19 5 -12 2 6 2 18 0 25 -3 6 -5 1 -5 -13z"/>
<path d="M2970 294 c0 -14 5 -69 11 -122 l12 -96 -34 -28 c-19 -16 -47 -33
-64 -37 -21 -7 5 -9 92 -10 120 -1 146 6 125 32 -14 19 -35 182 -27 225 l6 39
-45 12 c-66 16 -76 15 -76 -15z"/>
</g>
</svg>
